<svg width="129" height="144" viewBox="0 0 129 144" fill="none" xmlns="http://www.w3.org/2000/svg">
<path d="M122.097 114.937L64.5818 143.85L6.91223 114.636L6.60791 0L121.793 0.300791L122.097 114.937Z" fill="#F1F0EF"/>
<path d="M6.60791 0L6.91223 114.636L121.793 0.300791L6.60791 0Z" fill="#FDFDFC"/>
<path d="M120.7 1.37567L121 114.287L64.5787 142.646L8.00612 113.992L7.70638 1.08061L120.7 1.37567ZM121.793 0.300791L6.60791 0L6.91223 114.636L64.5818 143.85L122.097 114.937L121.793 0.300791Z" fill="#DAD9D6"/>
<path d="M77.5119 20.6797L64.1475 28.2967L50.9616 20.6103L50.9072 0.115234L77.4575 0.184567L77.5119 20.6797Z" fill="#FF492C"/>
<path d="M70.5995 10.3162L68.0979 10.3096C68.1699 9.91466 68.4068 9.71769 68.8991 9.4675L69.355 9.23519C70.1756 8.8242 70.6126 8.35832 70.6106 7.58593C70.6093 7.10095 70.4257 6.72326 70.0415 6.45283C69.6756 6.18244 69.2187 6.03754 68.6891 6.03616C68.2692 6.03506 67.9042 6.14189 67.5579 6.35653C67.2115 6.57117 66.9565 6.82198 66.8114 7.16288L67.5437 7.88328C67.8161 7.32717 68.2354 7.05883 68.7649 7.06021C69.2214 7.0614 69.4959 7.29563 69.4967 7.60099C69.4975 7.87042 69.3702 8.08564 68.8414 8.35369L68.5496 8.49663C67.9113 8.81828 67.4558 9.17634 67.2013 9.58881C66.9467 10.0013 66.8203 10.5219 66.8219 11.1505L66.8224 11.3302L70.6023 11.34L70.5995 10.3162Z" fill="#FDFDFC"/>
<path d="M70.2776 12.4888L66.1508 12.478L64.0967 15.9933L68.2235 16.0041L70.2963 19.5301L72.3503 16.0148L70.2776 12.4888Z" fill="#FDFDFC"/>
<path d="M64.4495 18.3469C61.82 18.34 59.678 16.2329 59.6711 13.6463C59.6643 11.0597 61.7951 8.94571 64.4245 8.95258L66.059 5.5979C65.5292 5.48874 64.9813 5.43343 64.4152 5.43195C59.8136 5.41993 56.0801 9.09245 56.0921 13.619C56.1041 18.1455 59.8572 21.8376 64.4588 21.8496C66.3031 21.8544 67.9997 21.2661 69.3666 20.2817L67.5507 17.2234C66.7126 17.9217 65.6364 18.35 64.4495 18.3469Z" fill="#FDFDFC"/>
<path d="M124.588 90.4079L4.14368 90.0934L0.0267029 80.0238L4.09027 69.9755L124.534 70.29L128.651 80.3597L124.588 90.4079Z" fill="#FF492C"/>
<path d="M41.9469 43.4535C42.0018 43.5075 42.0385 43.5795 42.0387 43.6513L42.045 46.0224C42.0452 46.0942 42.0089 46.166 41.9542 46.2197C41.8996 46.2735 41.8266 46.3092 41.7536 46.309L37.3529 46.2975C37.2799 46.2973 37.2252 46.3331 37.2254 46.4229L37.2614 59.9666C37.2616 60.0564 37.2252 60.1102 37.1706 60.1639C37.116 60.2177 37.043 60.2534 36.97 60.2532L34.1031 60.2457C34.0301 60.2455 33.957 60.2094 33.902 60.1554C33.8471 60.1014 33.8104 60.0294 33.8102 59.9576L33.7743 46.4139C33.7741 46.3421 33.7374 46.2881 33.6461 46.2878L29.3732 46.2767C29.3002 46.2765 29.227 46.2404 29.1721 46.1863C29.1172 46.1323 29.0805 46.0604 29.0803 45.9885L29.074 43.6175C29.0738 43.5456 29.1101 43.4739 29.1648 43.4201C29.2194 43.3664 29.2924 43.3307 29.3654 43.3308L41.7458 43.3632C41.8188 43.3634 41.892 43.3995 41.9469 43.4535Z" fill="#21201C"/>
<path d="M44.0339 59.409C43.046 58.7059 42.3678 57.7342 42.0176 56.5119C41.7782 55.7568 41.6664 54.9303 41.6641 54.0501C41.6616 53.0981 41.7689 52.2541 42.0043 51.5003C42.3846 50.3158 43.0577 49.3835 44.042 48.7035C45.0262 48.0236 46.194 47.7033 47.5818 47.7069C48.9148 47.7104 50.066 48.0547 51.0173 48.7218C51.9686 49.3889 52.6467 50.3247 53.0333 51.5112C53.2911 52.3202 53.4395 53.1648 53.4418 54.0449C53.4441 54.9071 53.3367 55.7331 53.1013 56.4869C52.7395 57.7433 52.0847 58.7295 51.1006 59.4455C50.1347 60.1614 48.9488 60.5176 47.5792 60.514C46.2097 60.5104 45.0218 60.1122 44.0339 59.409ZM48.9396 57.0688C49.3222 56.7465 49.5767 56.2981 49.7395 55.7417C49.866 55.2211 49.9375 54.6645 49.9359 54.0537C49.9341 53.3712 49.8596 52.8141 49.7305 52.3468C49.5465 51.8074 49.2714 51.3756 48.8871 51.0693C48.5029 50.7629 48.0459 50.6 47.5164 50.5987C46.9686 50.5972 46.4943 50.7577 46.1299 51.0621C45.7655 51.3665 45.4927 51.7968 45.3298 52.3353C45.203 52.7301 45.1315 53.2868 45.1335 54.0412C45.1354 54.7597 45.1917 55.3346 45.3023 55.7301C45.4681 56.2874 45.7432 56.7371 46.1275 57.0615C46.5119 57.3858 46.987 57.5487 47.5349 57.5501C48.1192 57.5516 48.5753 57.3912 48.9396 57.0688Z" fill="#21201C"/>
<path d="M67.3745 54.1527C67.3774 55.2663 67.2157 56.2718 66.9077 57.1691C66.527 58.192 65.9448 59.0167 65.143 59.6074C64.3411 60.216 63.3376 60.5008 62.1324 60.4976C60.9455 60.4945 60.0315 60.097 59.3719 59.2869C59.3353 59.2329 59.2987 59.2149 59.2805 59.2328C59.244 59.2507 59.2259 59.2866 59.226 59.3225L59.2397 64.4956C59.2399 64.5675 59.2036 64.6393 59.1489 64.693C59.0943 64.7467 59.0213 64.7825 58.9483 64.7823L56.0815 64.7748C56.0084 64.7746 55.9353 64.7385 55.8804 64.6845C55.8254 64.6304 55.7887 64.5585 55.7885 64.4866L55.7452 48.1588C55.745 48.087 55.7813 48.0152 55.836 47.9615C55.8906 47.9077 55.9635 47.872 56.0366 47.8722L58.9034 47.8797C58.9765 47.8799 59.0496 47.916 59.1045 47.97C59.1594 48.024 59.1962 48.096 59.1963 48.1678L59.1984 48.9582C59.1986 49.0121 59.2169 49.0301 59.2535 49.0481C59.29 49.0482 59.3265 49.0483 59.3447 49.0124C60.0362 48.1341 60.9846 47.6875 62.1897 47.6907C63.3218 47.6936 64.2904 48.0015 65.1321 48.6324C65.9555 49.2632 66.5603 50.127 66.9102 51.2236C67.2228 52.0686 67.3715 53.039 67.3745 54.1527ZM63.7771 54.0894C63.7744 53.0835 63.6079 52.2747 63.2594 51.6811C62.8741 50.9795 62.2706 50.6367 61.4489 50.6345C60.7002 50.6326 60.1351 50.9724 59.7535 51.6719C59.408 52.2458 59.2459 53.0717 59.2487 54.1135C59.2515 55.1912 59.4364 56.0359 59.8031 56.6296C60.1883 57.2773 60.737 57.602 61.4674 57.6039C62.1978 57.6059 62.7813 57.302 63.1814 56.6744C63.5814 56.0288 63.7799 55.1671 63.7771 54.0894Z" fill="#21201C"/>
<path d="M85.6552 54.9733C85.6574 55.7996 85.5315 56.5357 85.2594 57.1996C84.8786 58.2224 84.2234 59.047 83.2755 59.6373C82.3276 60.2455 81.2145 60.53 79.9363 60.5267C78.6946 60.5234 77.5982 60.2332 76.6654 59.638C75.7143 59.0427 75.0548 58.2507 74.6504 57.2258C74.4849 56.8122 74.3559 56.3628 74.2816 55.8956L74.2815 55.8597C74.2811 55.68 74.3721 55.5905 74.573 55.591L77.5494 55.5988C77.7137 55.5992 77.8235 55.6893 77.8605 55.869C77.879 55.9589 77.8975 56.0487 77.9342 56.1027C77.9709 56.1747 77.9893 56.2286 78.0076 56.2646C78.1731 56.6781 78.4113 57.0021 78.7406 57.2364C79.0699 57.4708 79.4537 57.5796 79.8919 57.5807C80.3484 57.5819 80.7498 57.4572 81.0961 57.2246C81.4425 56.992 81.6972 56.6514 81.8604 56.2207C82.0239 55.8979 82.0958 55.4849 82.0944 54.964C82.0932 54.497 82.0191 54.0836 81.872 53.7061C81.7613 53.2926 81.5231 52.9687 81.1755 52.7343C80.828 52.4999 80.4259 52.391 79.9694 52.3898C79.5129 52.3887 79.0932 52.4953 78.692 52.6919C78.2909 52.9064 78.036 53.1751 77.9091 53.5161C77.8547 53.6776 77.7453 53.7492 77.5993 53.7488L74.5863 53.7409C74.5133 53.7407 74.4402 53.7046 74.3852 53.6506C74.3303 53.5966 74.2936 53.5246 74.2934 53.4528L74.2676 43.7171C74.2674 43.6453 74.3037 43.5735 74.3583 43.5198C74.413 43.466 74.4859 43.4303 74.559 43.4305L84.6933 43.457C84.7664 43.4572 84.8395 43.4933 84.8944 43.5473C84.9494 43.6013 84.9861 43.6733 84.9863 43.7451L84.9925 46.0802C84.9926 46.1521 84.9563 46.2238 84.9017 46.2776C84.847 46.3313 84.7741 46.3671 84.7011 46.3669L77.8535 46.349C77.7805 46.3488 77.7258 46.3846 77.726 46.4744L77.7172 50.0489C77.7175 50.1566 77.7724 50.1927 77.8635 50.1211C78.5927 49.656 79.4503 49.4247 80.4181 49.4272C81.5685 49.4302 82.5735 49.7203 83.4333 50.2973C84.293 50.8743 84.8977 51.6483 85.2656 52.6551C85.5233 53.4641 85.6532 54.2368 85.6552 54.9733Z" fill="#21201C"/>
<path d="M89.1721 59.1661C88.1286 58.1754 87.5955 56.8269 87.591 55.1204L87.5741 48.7438C87.5696 47.0733 88.0956 45.7454 89.1339 44.7602C90.1721 43.775 91.5951 43.2937 93.4028 43.2985C95.2106 43.3032 96.6362 43.7919 97.6979 44.7826C98.7596 45.7733 99.2926 47.1039 99.2971 48.7744L99.314 55.151C99.3185 56.8575 98.7926 58.2033 97.7361 59.1884C96.6796 60.1736 95.2567 60.6728 93.4489 60.6681C91.6412 60.6634 90.2155 60.1567 89.1721 59.1661ZM95.1924 57.0802C95.6294 56.6323 95.847 56.0401 95.845 55.3036L95.8274 48.6576C95.8254 47.9211 95.6047 47.3278 95.1653 46.8776C94.7258 46.4274 94.1409 46.2103 93.4105 46.2084C92.6984 46.2065 92.1146 46.4205 91.6776 46.8685C91.2405 47.3164 91.023 47.9086 91.0249 48.645L91.0426 55.2911C91.0445 56.0276 91.2652 56.6209 91.7047 57.0711C92.1441 57.5213 92.7107 57.7383 93.4412 57.7402C94.1716 57.7421 94.7553 57.5281 95.1924 57.0802Z" fill="#21201C"/>
<path d="M38.8277 99.7028C38.846 99.7208 38.8461 99.7388 38.8461 99.7568L38.8479 100.421C38.8479 100.439 38.848 100.457 38.8298 100.475C38.8116 100.493 38.7933 100.493 38.7751 100.493L37.5334 100.49C37.5151 100.49 37.4969 100.508 37.4969 100.526L37.5071 104.352C37.5071 104.37 37.5072 104.388 37.489 104.405C37.4708 104.423 37.4525 104.423 37.4342 104.423L36.6125 104.421C36.5943 104.421 36.576 104.421 36.5577 104.403C36.5394 104.385 36.5394 104.367 36.5393 104.349L36.5292 100.523C36.5291 100.505 36.5108 100.487 36.4925 100.487L35.2874 100.484C35.2691 100.484 35.2508 100.484 35.2325 100.466C35.2142 100.448 35.2142 100.43 35.2141 100.412L35.2124 99.7473C35.2123 99.7293 35.2123 99.7113 35.2305 99.6934C35.2487 99.6755 35.267 99.6756 35.2852 99.6756L38.7912 99.6848C38.7911 99.6668 38.8094 99.6848 38.8277 99.7028Z" fill="#21201C"/>
<path d="M41.9986 104.345C41.7245 104.237 41.5049 104.056 41.3582 103.84C41.2116 103.625 41.1378 103.373 41.1371 103.086L41.1367 102.942C41.1367 102.924 41.1366 102.906 41.1548 102.888C41.173 102.87 41.1913 102.87 41.2096 102.87L41.9947 102.872C42.013 102.872 42.0313 102.872 42.0496 102.89C42.0679 102.908 42.0679 102.926 42.068 102.944L42.0683 103.052C42.0687 103.232 42.1605 103.394 42.3251 103.52C42.4898 103.646 42.7273 103.7 43.0195 103.701C43.2569 103.702 43.4393 103.648 43.5669 103.541C43.6944 103.433 43.7489 103.308 43.7485 103.164C43.7482 103.056 43.7114 102.966 43.6382 102.894C43.565 102.822 43.4552 102.75 43.3273 102.696C43.1993 102.642 42.9982 102.551 42.724 102.461C42.4133 102.352 42.1574 102.244 41.938 102.136C41.7186 102.027 41.5356 101.883 41.389 101.685C41.2424 101.487 41.1688 101.271 41.168 100.984C41.1673 100.715 41.2397 100.463 41.3852 100.266C41.5308 100.069 41.7312 99.9077 41.9866 99.8006C42.2419 99.6935 42.534 99.6404 42.8626 99.6412C43.2096 99.6422 43.5201 99.6969 43.7944 99.8233C44.0686 99.9498 44.2882 100.112 44.4349 100.346C44.5815 100.562 44.6735 100.831 44.6743 101.119L44.6746 101.227C44.6746 101.245 44.6747 101.263 44.6565 101.28C44.6383 101.298 44.62 101.298 44.6017 101.298L43.7983 101.296C43.78 101.296 43.7618 101.296 43.7435 101.278C43.7252 101.26 43.7251 101.242 43.7251 101.224L43.7249 101.17C43.7244 100.973 43.6509 100.811 43.4863 100.685C43.3216 100.559 43.1023 100.486 42.8284 100.485C42.6092 100.485 42.445 100.538 42.3175 100.628C42.1899 100.717 42.1354 100.843 42.1359 101.004C42.1361 101.112 42.173 101.22 42.2462 101.292C42.3194 101.364 42.4292 101.436 42.5572 101.509C42.7034 101.563 42.9228 101.653 43.2152 101.762C43.5442 101.888 43.8001 101.979 43.9829 102.069C44.1658 102.159 44.3488 102.304 44.4953 102.484C44.6419 102.664 44.7155 102.897 44.7163 103.185C44.7175 103.616 44.554 103.957 44.2442 104.189C43.9344 104.422 43.4966 104.565 42.9487 104.563C42.6017 104.508 42.2728 104.454 41.9986 104.345Z" fill="#21201C"/>
<path d="M46.3992 104.321C46.1249 104.177 45.9053 103.979 45.7585 103.709C45.6117 103.439 45.5196 103.151 45.5187 102.81L45.5148 101.355C45.5139 101.014 45.5862 100.727 45.7498 100.458C45.9135 100.189 46.1138 99.9917 46.3873 99.8487C46.6608 99.7057 46.9711 99.6347 47.3363 99.6356C47.7015 99.6366 48.0303 99.7093 48.3046 99.8537C48.5789 99.9981 48.7986 100.196 48.9454 100.466C49.0921 100.736 49.1842 101.024 49.1851 101.365L49.189 102.82C49.1899 103.161 49.1177 103.466 48.954 103.735C48.7904 104.004 48.5901 104.201 48.3165 104.344C48.043 104.487 47.7145 104.558 47.3493 104.557C47.0023 104.538 46.6917 104.466 46.3992 104.321ZM47.9856 103.481C48.1495 103.32 48.222 103.105 48.2213 102.853L48.2173 101.344C48.2166 101.075 48.143 100.859 47.9782 100.697C47.8317 100.535 47.6124 100.463 47.3567 100.462C47.1011 100.461 46.9004 100.533 46.7365 100.694C46.5908 100.855 46.5001 101.07 46.5008 101.34L46.5048 102.849C46.5056 103.118 46.5791 103.316 46.7439 103.478C46.8904 103.64 47.1097 103.712 47.3653 103.713C47.621 103.714 47.8217 103.642 47.9856 103.481Z" fill="#21201C"/>
<path d="M53.4737 100.514C53.4555 100.532 53.4373 100.532 53.419 100.532L51.1547 100.526C51.1365 100.526 51.1183 100.544 51.1183 100.562L51.1211 101.622C51.1212 101.64 51.1395 101.658 51.1578 101.658L52.6551 101.662C52.6733 101.662 52.6916 101.662 52.7099 101.68C52.7282 101.698 52.7283 101.716 52.7283 101.734L52.7301 102.398C52.7301 102.416 52.7302 102.434 52.712 102.452C52.6938 102.47 52.6755 102.47 52.6572 102.47L51.1599 102.466C51.1416 102.466 51.1234 102.484 51.1235 102.502L51.1285 104.388C51.1285 104.406 51.1286 104.424 51.1104 104.442C51.0921 104.46 51.0739 104.46 51.0556 104.46L50.2522 104.457C50.2339 104.457 50.2157 104.457 50.1974 104.439C50.179 104.421 50.179 104.403 50.1789 104.385L50.1667 99.7691C50.1666 99.7511 50.1666 99.7332 50.1848 99.7153C50.203 99.6974 50.2213 99.6974 50.2395 99.6975L53.4351 99.7058C53.4533 99.7058 53.4716 99.7059 53.4899 99.7239C53.5082 99.7419 53.5083 99.7599 53.5083 99.7778L53.5101 100.442C53.5102 100.478 53.4919 100.496 53.4737 100.514Z" fill="#21201C"/>
<path d="M57.6363 99.7516C57.6546 99.7696 57.6547 99.7876 57.6547 99.8056L57.6565 100.47C57.6565 100.488 57.6566 100.506 57.6384 100.524C57.6202 100.542 57.6019 100.542 57.5836 100.542L56.342 100.539C56.3237 100.539 56.3055 100.556 56.3055 100.574L56.3157 104.4C56.3157 104.418 56.3158 104.436 56.2976 104.454C56.2794 104.472 56.2611 104.472 56.2428 104.472L55.4211 104.47C55.4029 104.47 55.3846 104.47 55.3663 104.452C55.348 104.434 55.3479 104.416 55.3479 104.398L55.3377 100.572C55.3377 100.554 55.3194 100.536 55.3011 100.536L54.096 100.533C54.0777 100.533 54.0594 100.533 54.0411 100.515C54.0228 100.497 54.0228 100.479 54.0227 100.461L54.021 99.7961C54.0209 99.7781 54.0209 99.7602 54.0391 99.7422C54.0573 99.7243 54.0756 99.7244 54.0938 99.7244L57.5998 99.7336C57.5997 99.7156 57.6363 99.7337 57.6363 99.7516Z" fill="#21201C"/>
<path d="M59.62 104.428L58.3843 99.8086L58.3842 99.7726C58.3841 99.7367 58.4023 99.7188 58.4571 99.7189L59.3153 99.7212C59.3701 99.7213 59.3884 99.7393 59.4068 99.7933L60.0715 102.579C60.0716 102.597 60.0899 102.615 60.0899 102.615C60.0899 102.615 60.1081 102.597 60.1081 102.579L60.7398 99.8147C60.758 99.7609 60.7762 99.743 60.8309 99.7431L61.6709 99.7453C61.7257 99.7454 61.7623 99.7635 61.7624 99.8174L62.4637 102.603C62.4637 102.621 62.482 102.621 62.482 102.621C62.5002 102.621 62.5002 102.621 62.5002 102.603L63.132 99.8389C63.1501 99.7851 63.1683 99.7672 63.2231 99.7673L64.0448 99.7694C64.1178 99.7696 64.1362 99.8056 64.1181 99.8595L62.9982 104.473C62.9801 104.527 62.9436 104.545 62.9071 104.544L62.0854 104.542C62.0306 104.542 62.0123 104.524 61.9939 104.47L61.2739 101.505C61.2738 101.487 61.2555 101.469 61.2555 101.469C61.2372 101.469 61.2373 101.486 61.2373 101.504L60.5878 104.449C60.5697 104.502 60.5515 104.52 60.4967 104.52L59.7298 104.518C59.6749 104.5 59.6384 104.482 59.62 104.428Z" fill="#21201C"/>
<path d="M67.1253 104.447L66.9226 103.782C66.9043 103.764 66.9043 103.746 66.886 103.746L65.1878 103.741C65.1696 103.741 65.1696 103.759 65.1514 103.777L64.9523 104.441C64.9342 104.495 64.916 104.513 64.8612 104.513L63.9847 104.511C63.9482 104.511 63.9299 104.51 63.9299 104.492C63.9116 104.474 63.9115 104.457 63.9297 104.421L65.4148 99.8082C65.4329 99.7544 65.4511 99.7365 65.5059 99.7366L66.6015 99.7395C66.6563 99.7396 66.6746 99.7576 66.693 99.8115L68.2026 104.432C68.2026 104.45 68.2026 104.45 68.2027 104.468C68.2028 104.504 68.1846 104.522 68.1298 104.521L67.2533 104.519C67.162 104.519 67.1437 104.501 67.1253 104.447ZM65.405 103.005L66.6284 103.009C66.665 103.009 66.6649 102.991 66.6649 102.973L66.0386 100.941C66.0386 100.923 66.0203 100.923 66.0203 100.923C66.0021 100.923 66.0021 100.941 66.0021 100.941L65.4049 102.97C65.3867 102.987 65.3867 103.005 65.405 103.005Z" fill="#21201C"/>
<path d="M71.5629 104.476L70.6814 102.588C70.6631 102.57 70.663 102.552 70.6447 102.552L70.0056 102.55C69.9874 102.55 69.9692 102.568 69.9692 102.586L69.9742 104.454C69.9742 104.472 69.9743 104.49 69.9561 104.508C69.9379 104.526 69.9196 104.526 69.9013 104.526L69.0979 104.524C69.0796 104.524 69.0614 104.524 69.0431 104.506C69.0247 104.488 69.0247 104.47 69.0247 104.452L69.0124 99.8355C69.0124 99.8176 69.0123 99.7996 69.0305 99.7817C69.0487 99.7638 69.067 99.7638 69.0852 99.7639L71.0756 99.7691C71.3678 99.7698 71.6236 99.8244 71.8613 99.9507C72.099 100.077 72.2638 100.239 72.3921 100.455C72.5205 100.671 72.576 100.923 72.5767 101.21C72.5776 101.515 72.5052 101.785 72.3415 102C72.1777 102.215 71.959 102.376 71.6853 102.465C71.6671 102.483 71.6489 102.483 71.6672 102.519L72.6219 104.461C72.6402 104.479 72.6403 104.497 72.6403 104.497C72.6403 104.533 72.6221 104.551 72.5674 104.551L71.7091 104.549C71.5995 104.53 71.5812 104.512 71.5629 104.476ZM69.964 100.61L69.9671 101.778C69.9671 101.796 69.9854 101.814 70.0037 101.814L70.9167 101.816C71.1176 101.817 71.2635 101.763 71.391 101.638C71.5185 101.531 71.5729 101.369 71.5724 101.189C71.5719 101.01 71.5168 100.866 71.3886 100.74C71.2605 100.632 71.1142 100.56 70.9134 100.559L70.0004 100.557C69.9639 100.574 69.9639 100.592 69.964 100.61Z" fill="#21201C"/>
<path d="M76.7935 100.575C76.7752 100.593 76.757 100.593 76.7387 100.593L74.4562 100.587C74.4379 100.587 74.4197 100.605 74.4198 100.623L74.4226 101.682C74.4226 101.7 74.441 101.718 74.4592 101.718L75.9565 101.722C75.9748 101.722 75.9931 101.722 76.0114 101.74C76.0297 101.758 76.0297 101.776 76.0298 101.794L76.0315 102.459C76.0316 102.477 76.0316 102.495 76.0134 102.513C75.9952 102.531 75.977 102.531 75.9587 102.531L74.4614 102.527C74.4431 102.527 74.4249 102.545 74.4249 102.562L74.4279 103.676C74.4279 103.694 74.4462 103.712 74.4645 103.712L76.747 103.718C76.7653 103.718 76.7835 103.718 76.8019 103.736C76.8202 103.754 76.8202 103.772 76.8203 103.79L76.822 104.455C76.8221 104.473 76.8221 104.491 76.8039 104.509C76.7857 104.527 76.7674 104.526 76.7492 104.526L73.5354 104.518C73.5171 104.518 73.4989 104.518 73.4806 104.5C73.4622 104.482 73.4622 104.464 73.4622 104.446L73.4499 99.8297C73.4499 99.8117 73.4498 99.7937 73.468 99.7758C73.4862 99.7579 73.5045 99.758 73.5228 99.758L76.7365 99.7664C76.7548 99.7664 76.7731 99.7665 76.7914 99.7845C76.8097 99.8025 76.8097 99.8205 76.8098 99.8384L76.8115 100.503C76.8116 100.539 76.8117 100.557 76.7935 100.575Z" fill="#21201C"/>
<path d="M82.4825 104.488L82.2798 103.823C82.2615 103.805 82.2615 103.787 82.2432 103.787L80.545 103.782C80.5268 103.782 80.5268 103.8 80.5086 103.818L80.3095 104.482C80.2914 104.536 80.2732 104.554 80.2184 104.554L79.3419 104.552C79.3054 104.552 79.2871 104.551 79.2871 104.534C79.2688 104.515 79.2687 104.498 79.2869 104.462L80.772 99.8492C80.7901 99.7954 80.8083 99.7775 80.8631 99.7776L81.9587 99.7805C82.0135 99.7806 82.0318 99.7986 82.0502 99.8526L83.5598 104.473C83.5598 104.491 83.5598 104.491 83.5598 104.509C83.5599 104.545 83.5417 104.563 83.487 104.562L82.6105 104.56C82.5192 104.56 82.5009 104.542 82.4825 104.488ZM80.7622 103.046L81.9856 103.05C82.0221 103.05 82.0221 103.032 82.022 103.014L81.3958 100.982C81.3958 100.965 81.3775 100.964 81.3775 100.964C81.3592 100.964 81.3593 100.982 81.3593 100.982L80.7621 103.011C80.7439 103.028 80.7439 103.046 80.7622 103.046Z" fill="#21201C"/>
<path d="M84.5994 104.493L83.3638 99.873L83.3637 99.8371C83.3636 99.8012 83.3818 99.7833 83.4366 99.7834L84.2948 99.7856C84.3496 99.7858 84.3679 99.8038 84.3863 99.8577L85.051 102.644C85.0511 102.662 85.0694 102.68 85.0694 102.68C85.0694 102.68 85.0876 102.662 85.0876 102.644L85.7193 99.8792C85.7374 99.8253 85.7556 99.8074 85.8104 99.8076L86.6504 99.8097C86.7052 99.8099 86.7417 99.8279 86.7419 99.8818L87.4432 102.668C87.4432 102.686 87.4615 102.686 87.4615 102.686C87.4797 102.686 87.4797 102.686 87.4797 102.668L88.1114 99.9034C88.1296 99.8495 88.1478 99.8316 88.2026 99.8318L89.0243 99.8339C89.0973 99.8341 89.1157 99.8701 89.0975 99.9239L87.9777 104.537C87.9595 104.591 87.9231 104.609 87.8866 104.609L87.0648 104.607C87.0101 104.607 86.9918 104.589 86.9734 104.535L86.2533 101.569C86.2533 101.551 86.235 101.533 86.235 101.533C86.2167 101.533 86.2168 101.551 86.2168 101.569L85.5673 104.513C85.5492 104.567 85.531 104.585 85.4762 104.585L84.7092 104.583C84.6544 104.565 84.6178 104.546 84.5994 104.493Z" fill="#21201C"/>
<path d="M92.1048 104.511L91.9021 103.846C91.8838 103.828 91.8838 103.81 91.8655 103.81L90.1673 103.806C90.1491 103.806 90.1491 103.824 90.1309 103.842L89.9318 104.506C89.9137 104.56 89.8955 104.577 89.8407 104.577L88.9642 104.575C88.9277 104.575 88.9094 104.575 88.9094 104.557C88.8911 104.539 88.891 104.521 88.9092 104.485L90.3943 99.8727C90.4124 99.8188 90.4306 99.8009 90.4854 99.8011L91.581 99.8039C91.6358 99.8041 91.6541 99.8221 91.6725 99.876L93.1821 104.496C93.1821 104.514 93.1821 104.514 93.1822 104.532C93.1823 104.568 93.164 104.586 93.1093 104.586L92.2328 104.584C92.1415 104.583 92.1232 104.565 92.1048 104.511ZM90.3845 103.07L91.6079 103.073C91.6445 103.073 91.6444 103.055 91.6444 103.037L91.0181 101.006C91.0181 100.988 90.9998 100.988 90.9998 100.988C90.9816 100.988 90.9816 101.006 90.9816 101.006L90.3844 103.034C90.3662 103.052 90.3662 103.07 90.3845 103.07Z" fill="#21201C"/>
<path d="M96.5414 104.541L95.6599 102.653C95.6416 102.635 95.6415 102.617 95.6233 102.617L94.9842 102.615C94.9659 102.615 94.9477 102.633 94.9477 102.651L94.9527 104.519C94.9527 104.537 94.9528 104.555 94.9346 104.573C94.9164 104.591 94.8981 104.59 94.8798 104.59L94.0764 104.588C94.0581 104.588 94.0399 104.588 94.0216 104.57C94.0033 104.552 94.0032 104.534 94.0032 104.516L93.9909 99.9C93.9909 99.882 93.9908 99.864 94.009 99.8461C94.0272 99.8282 94.0455 99.8283 94.0638 99.8283L96.0541 99.8335C96.3463 99.8343 96.6021 99.8888 96.8398 100.015C97.0592 100.141 97.2423 100.304 97.3524 100.519C97.4808 100.735 97.5362 100.987 97.537 101.274C97.5378 101.58 97.4655 101.849 97.3017 102.064C97.138 102.279 96.9193 102.44 96.6456 102.529C96.6274 102.547 96.6091 102.547 96.6275 102.583L97.5822 104.526C97.6005 104.544 97.6005 104.562 97.6005 104.562C97.6006 104.598 97.5824 104.615 97.5276 104.615L96.6694 104.613C96.578 104.595 96.5597 104.577 96.5414 104.541ZM94.9425 100.675L94.9456 101.842C94.9456 101.86 94.964 101.878 94.9822 101.878L95.8952 101.881C96.0961 101.881 96.242 101.828 96.3695 101.702C96.497 101.595 96.5514 101.433 96.5509 101.254C96.5504 101.074 96.4953 100.93 96.3671 100.804C96.239 100.696 96.0927 100.624 95.8919 100.623L94.9789 100.621C94.9424 100.639 94.9424 100.657 94.9425 100.675Z" fill="#21201C"/>
<path d="M98.4588 104.584C98.4405 104.566 98.4405 104.548 98.4404 104.53L98.4282 99.9137C98.4281 99.8957 98.4281 99.8777 98.4463 99.8598C98.4645 99.8419 98.4828 99.8419 98.501 99.842L100.236 99.8465C100.583 99.8474 100.893 99.9021 101.149 100.029C101.405 100.155 101.606 100.317 101.753 100.533C101.9 100.749 101.974 101.001 101.974 101.288L101.979 103.174C101.98 103.461 101.908 103.713 101.762 103.928C101.617 104.143 101.416 104.322 101.161 104.429C100.906 104.554 100.595 104.607 100.248 104.607L98.5137 104.602C98.4954 104.602 98.4771 104.602 98.4588 104.584ZM99.4427 103.778L100.283 103.78C100.502 103.781 100.666 103.71 100.793 103.566C100.921 103.423 100.993 103.243 100.993 102.992L100.989 101.429C100.988 101.196 100.914 100.998 100.786 100.854C100.658 100.71 100.475 100.637 100.256 100.637L99.4161 100.635C99.3979 100.635 99.3797 100.653 99.3797 100.671L99.3878 103.724C99.4062 103.778 99.4245 103.778 99.4427 103.778Z" fill="#21201C"/>
<path d="M103.627 104.507C103.353 104.399 103.133 104.219 102.986 104.003C102.84 103.787 102.766 103.535 102.765 103.248L102.765 103.104C102.765 103.086 102.765 103.068 102.783 103.05C102.801 103.032 102.819 103.032 102.838 103.032L103.623 103.034C103.641 103.034 103.659 103.034 103.678 103.052C103.696 103.07 103.696 103.088 103.696 103.106L103.696 103.214C103.697 103.394 103.789 103.556 103.953 103.682C104.118 103.808 104.356 103.862 104.648 103.863C104.885 103.864 105.068 103.81 105.195 103.703C105.323 103.596 105.377 103.47 105.377 103.326C105.376 103.218 105.34 103.129 105.266 103.057C105.193 102.985 105.083 102.912 104.955 102.858C104.827 102.804 104.626 102.714 104.352 102.623C104.042 102.514 103.786 102.406 103.566 102.298C103.347 102.189 103.164 102.045 103.017 101.847C102.871 101.649 102.797 101.434 102.796 101.146C102.795 100.877 102.868 100.625 103.013 100.428C103.159 100.231 103.359 100.07 103.615 99.9627C103.87 99.8556 104.162 99.8025 104.491 99.8034C104.838 99.8043 105.148 99.859 105.423 99.9854C105.697 100.112 105.916 100.274 106.063 100.508C106.21 100.724 106.302 100.994 106.302 101.281L106.303 101.389C106.303 101.407 106.303 101.425 106.285 101.443C106.266 101.461 106.248 101.46 106.23 101.46L105.445 101.458C105.426 101.458 105.408 101.458 105.39 101.44C105.372 101.422 105.372 101.404 105.371 101.386L105.371 101.332C105.371 101.135 105.297 100.973 105.133 100.847C104.968 100.721 104.749 100.648 104.475 100.648C104.256 100.647 104.091 100.7 103.964 100.79C103.836 100.879 103.782 101.005 103.782 101.167C103.783 101.274 103.819 101.382 103.893 101.454C103.966 101.526 104.076 101.598 104.204 101.671C104.35 101.725 104.569 101.815 104.862 101.924C105.191 102.05 105.447 102.141 105.629 102.231C105.812 102.322 105.995 102.466 106.142 102.646C106.288 102.826 106.362 103.059 106.363 103.347C106.364 103.778 106.2 104.119 105.891 104.351C105.581 104.584 105.143 104.727 104.595 104.725C104.23 104.67 103.901 104.616 103.627 104.507Z" fill="#21201C"/>
<path d="M51.4782 119.405C51.4965 119.423 51.5148 119.441 51.5331 119.441L55.3312 119.451C55.386 119.451 55.4225 119.469 55.4592 119.505C55.4958 119.541 55.5141 119.577 55.5143 119.631L55.5178 120.96C55.5179 121.014 55.4998 121.05 55.4634 121.086C55.4269 121.122 55.3905 121.14 55.3357 121.139L49.0359 121.123C48.9811 121.123 48.9446 121.105 48.908 121.069C48.8714 121.033 48.853 120.997 48.8529 120.943L48.8495 119.685C48.8493 119.596 48.8857 119.542 48.9403 119.488C49.3956 119.04 49.8691 118.574 50.3425 118.055C50.8159 117.535 51.1072 117.213 51.2347 117.087C51.4895 116.782 51.7626 116.496 52.0358 116.227C52.8733 115.295 53.3098 114.614 53.3086 114.165C53.3077 113.841 53.1974 113.572 52.9595 113.374C52.7216 113.175 52.4292 113.067 52.0457 113.066C51.6805 113.065 51.3704 113.172 51.1335 113.369C50.8966 113.566 50.7879 113.853 50.7888 114.194L50.7897 114.535C50.7898 114.589 50.7716 114.625 50.7352 114.661C50.6988 114.697 50.6623 114.715 50.6075 114.715L48.9641 114.71C48.9093 114.71 48.8728 114.692 48.8362 114.656C48.7995 114.62 48.7812 114.584 48.781 114.53L48.7793 113.883C48.8145 113.381 48.9595 112.95 49.2506 112.573C49.5418 112.197 49.9245 111.911 50.3987 111.696C50.8729 111.5 51.4204 111.394 52.0048 111.395C52.6621 111.397 53.2468 111.524 53.7404 111.759C54.2341 112.012 54.6002 112.336 54.8752 112.75C55.1502 113.164 55.2792 113.631 55.2806 114.134C55.2816 114.511 55.1913 114.906 54.9915 115.319C54.7917 115.713 54.5008 116.162 54.1185 116.628C53.8273 116.986 53.5179 117.345 53.1901 117.685C52.8623 118.025 52.3524 118.527 51.6968 119.19L51.4964 119.387C51.4781 119.369 51.4782 119.387 51.4782 119.405Z" fill="#21201C"/>
<path d="M57.6165 120.426C57.0124 119.868 56.7182 119.095 56.7156 118.125L56.706 114.496C56.7035 113.544 56.9936 112.79 57.5947 112.235C58.1958 111.68 58.9985 111.395 60.0211 111.397C61.0437 111.4 61.8661 111.69 62.4702 112.248C63.0743 112.806 63.3684 113.562 63.371 114.514L63.3806 118.142C63.3832 119.112 63.093 119.884 62.4919 120.439C61.8908 120.994 61.0882 121.279 60.0473 121.277C59.0248 121.274 58.2023 120.984 57.6165 120.426ZM61.0462 119.232C61.3012 118.981 61.4098 118.64 61.4087 118.227L61.3987 114.437C61.3976 114.023 61.2688 113.682 61.0308 113.43C60.7745 113.178 60.4455 113.051 60.0255 113.05C59.6238 113.049 59.2954 113.174 59.0404 113.425C58.7855 113.675 58.6768 114.016 58.6779 114.429L58.688 118.22C58.6891 118.633 58.8178 118.974 59.0558 119.226C59.3122 119.479 59.6412 119.605 60.0429 119.606C60.4629 119.607 60.7912 119.482 61.0462 119.232Z" fill="#21201C"/>
<path d="M67.2914 119.446C67.3097 119.464 67.3281 119.482 67.3463 119.482L71.1444 119.492C71.1992 119.492 71.2358 119.51 71.2724 119.546C71.309 119.582 71.3274 119.618 71.3275 119.672L71.331 121.001C71.3312 121.055 71.313 121.091 71.2766 121.127C71.2402 121.163 71.2037 121.181 71.1489 121.18L64.8492 121.164C64.7944 121.164 64.7578 121.146 64.7212 121.11C64.6846 121.074 64.6662 121.038 64.6661 120.984L64.6627 119.727C64.6625 119.637 64.6989 119.583 64.7535 119.529C65.2088 119.081 65.6824 118.616 66.1557 118.096C66.6291 117.576 66.9204 117.254 67.0479 117.128C67.3027 116.824 67.5759 116.537 67.8491 116.268C68.6866 115.336 69.123 114.655 69.1218 114.206C69.1209 113.882 69.0107 113.613 68.7728 113.415C68.5348 113.216 68.2424 113.108 67.8589 113.107C67.4937 113.106 67.1836 113.213 66.9467 113.41C66.7099 113.607 66.6011 113.894 66.602 114.235L66.6029 114.576C66.603 114.63 66.5849 114.666 66.5484 114.702C66.512 114.738 66.4756 114.756 66.4208 114.756L64.7774 114.751C64.7226 114.751 64.686 114.733 64.6494 114.697C64.6128 114.661 64.5944 114.625 64.5943 114.571L64.5926 113.925C64.6278 113.422 64.7727 112.991 65.0638 112.614C65.355 112.238 65.7377 111.952 66.2119 111.737C66.6861 111.541 67.2337 111.435 67.818 111.436C68.4753 111.438 69.06 111.565 69.5536 111.8C70.0473 112.053 70.4134 112.377 70.6884 112.791C70.9634 113.205 71.0925 113.672 71.0938 114.175C71.0948 114.552 71.0045 114.947 70.8048 115.36C70.605 115.754 70.314 116.203 69.9318 116.669C69.6406 117.027 69.3311 117.386 69.0033 117.726C68.6755 118.066 68.1656 118.568 67.51 119.231L67.3097 119.428C67.2731 119.41 67.2731 119.428 67.2914 119.446Z" fill="#21201C"/>
<path d="M79.6109 117.019C79.6475 117.055 79.6659 117.091 79.666 117.145L79.6697 118.528C79.6698 118.582 79.6516 118.618 79.6152 118.653C79.5788 118.689 79.5423 118.707 79.4875 118.707L78.885 118.705C78.8302 118.705 78.812 118.723 78.8121 118.777L78.8181 121.022C78.8182 121.076 78.8 121.112 78.7636 121.148C78.7272 121.184 78.6907 121.202 78.6359 121.202L76.9925 121.197C76.9377 121.197 76.9012 121.179 76.8646 121.143C76.828 121.107 76.8096 121.071 76.8095 121.017L76.8035 118.772C76.8033 118.718 76.785 118.7 76.7303 118.7L72.4391 118.689C72.3843 118.688 72.3478 118.67 72.3112 118.634C72.2745 118.598 72.2562 118.562 72.2561 118.508L72.2531 117.413C72.253 117.359 72.2711 117.287 72.2891 117.215L74.7943 111.671C74.8306 111.582 74.9035 111.546 74.9948 111.546L76.7478 111.551C76.8208 111.551 76.8574 111.569 76.8758 111.605C76.8941 111.641 76.8942 111.677 76.8761 111.749L74.6255 116.88C74.6073 116.898 74.6074 116.916 74.6257 116.934C74.644 116.952 74.644 116.97 74.6623 116.97L76.7805 116.976C76.8352 116.976 76.8535 116.958 76.8533 116.904L76.8488 115.197C76.8486 115.144 76.8668 115.108 76.9032 115.072C76.9397 115.036 76.9761 115.018 77.0309 115.018L78.6743 115.023C78.7291 115.023 78.7657 115.041 78.8023 115.077C78.8389 115.113 78.8573 115.149 78.8574 115.203L78.8619 116.909C78.8621 116.963 78.8804 116.981 78.9352 116.981L79.5377 116.983C79.5377 116.983 79.5926 117.001 79.6109 117.019Z" fill="#21201C"/>
<path d="M37.5994 84.3589L37.2126 83.1185C37.1943 83.0826 37.176 83.0646 37.1394 83.0645L33.9987 83.0563C33.9804 83.0562 33.944 83.0741 33.9441 83.11L33.5821 84.3485C33.5641 84.4382 33.5094 84.474 33.4181 84.4738L31.793 84.4695C31.7382 84.4694 31.7016 84.4513 31.6833 84.4333C31.665 84.3973 31.6466 84.3614 31.6647 84.3075L34.3995 75.8185C34.4175 75.7287 34.4722 75.693 34.5635 75.6932L36.5721 75.6984C36.6634 75.6987 36.7183 75.7347 36.7368 75.8246L39.5166 84.328C39.5166 84.346 39.5349 84.364 39.535 84.3999C39.5352 84.4718 39.4805 84.5076 39.3892 84.5073L37.7641 84.5031C37.691 84.4849 37.6361 84.4489 37.5994 84.3589ZM34.4516 81.6923L36.6976 81.6982C36.7523 81.6983 36.7706 81.6804 36.7522 81.6265L35.5918 77.8873C35.5918 77.8514 35.5734 77.8333 35.5552 77.8513C35.537 77.8512 35.5188 77.8691 35.5188 77.8871L34.3966 81.6203C34.3967 81.6742 34.415 81.6922 34.4516 81.6923Z" fill="#FDFDFC"/>
<path d="M40.7043 84.4568C40.6677 84.4208 40.6676 84.3848 40.6675 84.3489L40.6449 75.8527C40.6448 75.8168 40.663 75.7809 40.6811 75.745C40.7176 75.7092 40.7541 75.7093 40.7906 75.7094L42.2879 75.7133C42.3245 75.7134 42.361 75.7314 42.3976 75.7495C42.4342 75.7855 42.4343 75.8214 42.4344 75.8574L42.457 84.3536C42.4571 84.3895 42.4389 84.4254 42.4207 84.4613C42.3843 84.4971 42.3478 84.497 42.3113 84.4969L40.8139 84.493C40.7774 84.4929 40.7408 84.4748 40.7043 84.4568Z" fill="#FDFDFC"/>
<path d="M51.7288 76.0438C52.1494 76.2784 52.4789 76.5846 52.7174 77.0163C52.9559 77.4301 53.0668 77.9154 53.0682 78.4363C53.0695 78.9572 52.943 79.4239 52.7067 79.8364C52.4703 80.2309 52.1243 80.5533 51.6866 80.7678C51.2489 80.9822 50.738 81.1066 50.1719 81.1051L48.3642 81.1004C48.3276 81.1003 48.2912 81.1181 48.2912 81.1541L48.2998 84.3693C48.2999 84.4053 48.2817 84.4411 48.2636 84.477C48.2271 84.5128 48.1906 84.5127 48.1541 84.5126L46.6568 84.5087C46.6202 84.5086 46.5837 84.4906 46.5471 84.4725C46.5105 84.4365 46.5104 84.4006 46.5103 84.3647L46.4877 75.8505C46.4876 75.8146 46.5058 75.7787 46.5239 75.7428C46.5603 75.707 46.5969 75.7071 46.6334 75.7072L50.2306 75.7166C50.8149 75.7001 51.3083 75.8271 51.7288 76.0438ZM50.9342 79.3468C51.171 79.1318 51.298 78.8268 51.297 78.4676C51.296 78.0904 51.1674 77.8026 50.9294 77.5685C50.6914 77.3344 50.3807 77.2258 49.979 77.2247L48.3539 77.2205C48.3173 77.2204 48.2809 77.2383 48.281 77.2921L48.2871 79.6093C48.2872 79.6452 48.3056 79.6632 48.3603 79.6634L49.9855 79.6676C50.3873 79.6866 50.6973 79.5617 50.9342 79.3468Z" fill="#FDFDFC"/>
<path d="M58.0714 78.1628C58.1446 78.1989 58.163 78.2528 58.1449 78.3426L57.8748 79.7789C57.8751 79.8866 57.8021 79.9044 57.6925 79.8682C57.5646 79.8319 57.4184 79.7956 57.2358 79.7952C57.1627 79.795 57.0714 79.7947 56.9619 79.8124C56.6516 79.8296 56.3963 79.9546 56.1777 80.1516C55.9591 80.3487 55.8502 80.6178 55.8511 80.9411L55.8602 84.3719C55.8603 84.4079 55.8421 84.4437 55.8239 84.4796C55.7875 84.5155 55.751 84.5154 55.7145 84.5153L54.2172 84.5114C54.1806 84.5113 54.1441 84.4932 54.1075 84.4751C54.0709 84.4391 54.0708 84.4032 54.0707 84.3673L54.0543 78.2062C54.0542 78.1702 54.0724 78.1344 54.0906 78.0985C54.127 78.0627 54.1635 78.0628 54.2 78.0628L55.6974 78.0668C55.7339 78.0669 55.7705 78.0849 55.807 78.103C55.8436 78.139 55.8437 78.1749 55.8438 78.2108L55.8451 78.6958C55.8452 78.7138 55.8452 78.7318 55.8635 78.7498C55.8818 78.7498 55.9 78.7499 55.9 78.7319C56.2456 78.2299 56.7197 77.9796 57.304 77.9811C57.651 77.9821 57.8885 78.0545 58.0714 78.1628Z" fill="#FDFDFC"/>
<path d="M59.8773 84.0964C59.365 83.7178 59.0167 83.214 58.8325 82.5848C58.7036 82.1893 58.6477 81.758 58.6465 81.309C58.6451 80.806 58.6988 80.3751 58.8255 79.9802C59.0247 79.3521 59.3704 78.868 59.8808 78.5281C60.3911 78.1881 61.0115 78.0101 61.7237 78.012C62.4175 78.0138 63.0206 78.195 63.5145 78.5375C64.0085 78.8801 64.3567 79.366 64.5592 79.9952C64.6881 80.4087 64.7624 80.8579 64.7636 81.307C64.7648 81.7561 64.7111 82.187 64.5844 82.5819C64.4035 83.228 64.0579 83.748 63.5476 84.1239C63.0373 84.4998 62.4352 84.6778 61.7231 84.676C61.0109 84.6561 60.3895 84.4569 59.8773 84.0964ZM62.4305 82.8816C62.6309 82.7205 62.7581 82.4873 62.8486 82.1822C62.9209 81.9129 62.9567 81.6256 62.9558 81.3023C62.9549 80.943 62.9176 80.6555 62.8439 80.4039C62.7518 80.1162 62.6052 79.9003 62.4039 79.7381C62.2026 79.5759 61.965 79.5035 61.6911 79.5027C61.3989 79.502 61.1617 79.5732 60.9613 79.7344C60.7791 79.8955 60.6336 80.1107 60.5431 80.3979C60.4706 80.5953 60.4349 80.9005 60.4359 81.2957C60.4369 81.6729 60.4742 81.9604 60.5295 82.1761C60.6216 82.4637 60.7501 82.6976 60.9514 82.8777C61.1527 83.0399 61.3903 83.1303 61.6825 83.1311C61.9929 83.1319 62.2483 83.0428 62.4305 82.8816Z" fill="#FDFDFC"/>
<path d="M70.0428 75.8068C70.0792 75.771 70.1157 75.7711 70.1523 75.7712L71.6496 75.7751C71.6861 75.7752 71.7227 75.7932 71.7592 75.8113C71.7959 75.8473 71.796 75.8832 71.7961 75.9192L71.8186 84.4154C71.8187 84.4513 71.8005 84.4872 71.7824 84.523C71.7459 84.5589 71.7094 84.5588 71.6729 84.5587L70.1756 84.5548C70.1391 84.5547 70.1025 84.5366 70.0659 84.5186C70.0293 84.4825 70.0292 84.4466 70.0291 84.4107L70.028 83.9976C70.028 83.9796 70.0279 83.9616 70.0097 83.9616C69.9914 83.9615 69.9731 83.9615 69.9549 83.9794C69.591 84.4455 69.1168 84.6598 68.4959 84.6582C67.8933 84.6566 67.3816 84.4936 66.9608 84.1692C66.5399 83.8448 66.2283 83.3949 66.0259 82.8196C65.8787 82.3881 65.8043 81.8849 65.8028 81.2922C65.8012 80.6994 65.8729 80.1787 66.036 79.7301C66.2354 79.1917 66.5447 78.7614 66.9639 78.4572C67.3831 78.1529 67.9122 77.9926 68.533 77.9943C69.1539 77.9959 69.6292 78.2127 69.959 78.6267C69.9773 78.6447 69.9956 78.6627 70.0138 78.6448C70.0321 78.6448 70.032 78.6269 70.0319 78.5909L70.0248 75.8966C69.9882 75.8785 70.0064 75.8426 70.0428 75.8068ZM70.0027 81.3391C70.0012 80.7822 69.9087 80.3329 69.7253 80.0271C69.5236 79.7033 69.2493 79.5409 68.8658 79.5399C68.4641 79.5388 68.1541 79.6997 67.9541 80.0225C67.7358 80.3452 67.6275 80.794 67.6289 81.3508C67.6303 81.8538 67.7227 82.2672 67.9062 82.6089C68.1262 82.9687 68.4371 83.1492 68.8571 83.1503C69.2406 83.1513 69.5323 82.9724 69.7504 82.6137C69.914 82.3088 70.0041 81.8779 70.0027 81.3391Z" fill="#FDFDFC"/>
<path d="M77.0432 78.177C77.0796 78.1412 77.1162 78.1413 77.1527 78.1414L78.65 78.1453C78.6865 78.1454 78.7231 78.1635 78.7597 78.1815C78.7963 78.2175 78.7964 78.2535 78.7965 78.2894L78.8128 84.4505C78.8129 84.4864 78.7948 84.5223 78.7766 84.5582C78.7402 84.594 78.7037 84.5939 78.6671 84.5938L77.1698 84.5899C77.1333 84.5898 77.0967 84.5717 77.0601 84.5537C77.0235 84.5177 77.0234 84.4817 77.0233 84.4458L77.0222 84.0147C77.0221 83.9968 77.0221 83.9788 77.0038 83.9787C76.9856 83.9787 76.9673 83.9787 76.9492 84.0145C76.6034 84.4627 76.0745 84.6948 75.3623 84.693C74.7232 84.6913 74.1749 84.4923 73.7539 84.114C73.3329 83.7357 73.1306 83.1783 73.1288 82.4957L73.1176 78.2925C73.1175 78.2566 73.1357 78.2207 73.1539 78.1848C73.1903 78.149 73.2268 78.1491 73.2633 78.1492L74.7424 78.1531C74.7789 78.1532 74.8155 78.1712 74.852 78.1893C74.8887 78.2253 74.8888 78.2612 74.8889 78.2971L74.8988 82.0513C74.8997 82.3926 74.9917 82.6622 75.1749 82.8603C75.358 83.0763 75.614 83.1848 75.9427 83.1856C76.2348 83.1864 76.472 83.0972 76.6541 82.936C76.8363 82.7569 76.9635 82.5417 76.9993 82.2723L76.9888 78.3206C76.9886 78.2308 77.0067 78.1949 77.0432 78.177Z" fill="#FDFDFC"/>
<path d="M81.2592 84.2055C80.7652 83.8629 80.3988 83.4129 80.1964 82.8196C80.0492 82.4061 79.9749 81.9029 79.9733 81.3281C79.9718 80.7713 80.0436 80.2865 80.1886 79.8738C80.3879 79.2995 80.7519 78.8514 81.2441 78.5293C81.7545 78.2074 82.3384 78.0472 83.014 78.049C83.6897 78.0507 84.2927 78.214 84.8049 78.5566C85.3171 78.8992 85.6651 79.3133 85.8308 79.8346C85.9044 80.0324 85.9413 80.1941 85.9416 80.2839L85.9416 80.3019C85.9418 80.3738 85.9054 80.4276 85.8142 80.4453L84.3539 80.657L84.3357 80.657C84.2626 80.6568 84.2078 80.6207 84.1893 80.5308L84.1522 80.3332C84.0969 80.1175 83.9686 79.9375 83.7491 79.7932C83.5478 79.649 83.292 79.5765 83.0181 79.5758C82.7442 79.5751 82.507 79.6463 82.3247 79.7716C82.1425 79.8968 81.9969 80.094 81.9245 80.3273C81.8339 80.5786 81.78 80.9197 81.7811 81.3508C81.7823 81.7819 81.8197 82.1233 81.9117 82.375C81.9854 82.6267 82.132 82.8246 82.315 82.9688C82.4979 83.113 82.7355 83.1855 83.0094 83.1862C83.2651 83.1868 83.5023 83.1156 83.7027 82.9724C83.9032 82.8293 84.0488 82.65 84.1212 82.3987C84.1211 82.3808 84.1394 82.3629 84.1393 82.3269C84.1393 82.3269 84.1575 82.309 84.1574 82.2911C84.1571 82.1833 84.2301 82.1476 84.3397 82.1658L85.8011 82.4031C85.8925 82.4213 85.9291 82.4753 85.9293 82.5472C85.9295 82.619 85.9116 82.7447 85.8573 82.9242C85.6762 83.4805 85.3304 83.9287 84.82 84.2507C84.3096 84.5727 83.7074 84.7328 83.0318 84.731C82.3561 84.7113 81.753 84.5301 81.2592 84.2055Z" fill="#FDFDFC"/>
<path d="M90.7241 79.5413C90.6877 79.5771 90.6512 79.577 90.6146 79.5769L89.3912 79.5737C89.3547 79.5736 89.3182 79.5915 89.3184 79.6454L89.3254 82.3038C89.3261 82.5733 89.3815 82.7889 89.4914 82.915C89.6013 83.041 89.7841 83.1133 90.0397 83.114L90.4597 83.1151C90.4962 83.1152 90.5328 83.1332 90.5693 83.1513C90.606 83.1873 90.6061 83.2232 90.6062 83.2592L90.6093 84.4626C90.6096 84.5525 90.555 84.6062 90.4637 84.6239C90.0985 84.6409 89.8429 84.6403 89.6968 84.6399C88.9847 84.638 88.4548 84.5289 88.1073 84.2945C87.7597 84.06 87.576 83.6285 87.5743 82.9998L87.5653 79.6228C87.5652 79.5869 87.5469 79.551 87.4921 79.5508L86.7617 79.5489C86.7252 79.5488 86.6886 79.5307 86.652 79.5127C86.6154 79.4767 86.6153 79.4407 86.6152 79.4048L86.6123 78.2912C86.6122 78.2552 86.6304 78.2193 86.6485 78.1835C86.6849 78.1476 86.7215 78.1477 86.758 78.1478L87.4884 78.1497C87.5249 78.1498 87.5614 78.132 87.5613 78.096L87.5573 76.6052C87.5572 76.5692 87.5754 76.5334 87.5936 76.4975C87.63 76.4617 87.6665 76.4618 87.703 76.4618L89.1273 76.4656C89.1638 76.4657 89.2004 76.4837 89.237 76.5018C89.2736 76.5378 89.2737 76.5737 89.2738 76.6096L89.2777 78.1005C89.2778 78.1365 89.2961 78.1545 89.3509 78.1546L90.5744 78.1578C90.6109 78.1579 90.6474 78.176 90.684 78.194C90.7206 78.23 90.7207 78.266 90.7208 78.3019L90.7238 79.4155C90.7604 79.4695 90.7423 79.5054 90.7241 79.5413Z" fill="#FDFDFC"/>
<path d="M92.9837 84.4872C92.5632 84.3244 92.234 84.108 91.9958 83.82C91.7577 83.532 91.6473 83.2084 91.6463 82.8491L91.646 82.7234C91.6459 82.6874 91.6641 82.6516 91.6822 82.6157C91.7187 82.5799 91.7552 82.58 91.7917 82.5801L93.216 82.5838C93.2525 82.5839 93.2891 82.6019 93.3256 82.62C93.3623 82.656 93.3624 82.6919 93.3624 82.7279L93.3625 82.7458C93.363 82.9254 93.473 83.0874 93.6742 83.2137C93.8753 83.3399 94.1494 83.4125 94.4599 83.4133C94.752 83.4141 94.9893 83.3608 95.1533 83.2534C95.3356 83.1461 95.4266 83.0027 95.4261 82.841C95.4258 82.6973 95.3524 82.5714 95.1878 82.4991C95.0233 82.4268 94.7857 82.3364 94.4386 82.2636C94.0365 82.1548 93.7259 82.0642 93.4883 81.9738C92.94 81.7927 92.5011 81.5581 92.19 81.2878C91.8606 81.0175 91.6952 80.6399 91.6939 80.1369C91.6922 79.5082 91.9283 79.0239 92.4204 78.6659C92.9125 78.308 93.5511 78.13 94.3728 78.1322C94.9206 78.1336 95.3956 78.2246 95.7978 78.3873C96.2 78.568 96.5293 78.8024 96.7492 79.1083C96.9691 79.4143 97.0979 79.7738 97.099 80.169C97.099 80.2049 97.0809 80.2408 97.0627 80.2767C97.0263 80.3125 96.9898 80.3124 96.9533 80.3123L95.5837 80.3087C95.5472 80.3087 95.5107 80.2906 95.4741 80.2725C95.4375 80.2365 95.4374 80.2006 95.4373 80.1647C95.4368 79.985 95.3451 79.8231 95.1439 79.6969C94.961 79.5707 94.7052 79.5161 94.3765 79.5153C94.1026 79.5145 93.8653 79.5678 93.683 79.6571C93.5007 79.7644 93.4097 79.8899 93.4102 80.0696C93.4106 80.2312 93.5022 80.3572 93.6668 80.4474C93.8497 80.5377 94.142 80.6283 94.544 80.7192C94.6354 80.7374 94.745 80.7736 94.8729 80.8098C95.0009 80.8461 95.1288 80.8824 95.2567 80.9186C95.8597 81.0998 96.3351 81.3166 96.6828 81.6049C97.0304 81.8752 97.2141 82.2889 97.2155 82.8098C97.2172 83.4385 96.9628 83.9048 96.4707 84.2628C95.9786 84.6028 95.3035 84.7806 94.4635 84.7784C93.9155 84.7231 93.4223 84.632 92.9837 84.4872Z" fill="#FDFDFC"/>
<path d="M27.4179 102.14C27.7545 102.341 27.9234 102.693 27.9247 103.177C27.9258 103.595 27.8146 103.896 27.5771 104.112C27.3396 104.329 27.0318 104.429 26.6537 104.428L25.2814 104.424C25.2674 104.424 25.2534 104.424 25.2393 104.407C25.2253 104.391 25.2252 104.374 25.2252 104.357L25.2138 100.061C25.2138 100.044 25.2137 100.028 25.2277 100.011C25.2416 99.9942 25.2556 99.9943 25.2696 99.9943L26.6 99.9978C27.4402 100 27.8614 100.402 27.8635 101.221C27.8646 101.639 27.7114 101.94 27.4178 102.123C27.4038 102.106 27.4038 102.123 27.4179 102.14ZM25.9579 100.765L25.9605 101.751C25.9605 101.768 25.9746 101.785 25.9886 101.785L26.6047 101.786C26.7728 101.787 26.8987 101.737 26.9965 101.654C27.0942 101.554 27.1359 101.437 27.1355 101.27C27.135 101.102 27.0927 100.969 26.9944 100.885C26.8961 100.784 26.77 100.734 26.6019 100.733L25.9858 100.732C25.9718 100.732 25.9578 100.748 25.9579 100.765ZM27.0434 103.493C27.1411 103.393 27.1828 103.259 27.1823 103.075C27.1818 102.908 27.1394 102.757 27.0412 102.674C26.9429 102.573 26.8167 102.522 26.6487 102.522L25.9905 102.52C25.9765 102.52 25.9626 102.537 25.9626 102.554L25.9654 103.607C25.9654 103.624 25.9795 103.64 25.9935 103.64L26.6657 103.642C26.8197 103.642 26.9456 103.593 27.0434 103.493Z" fill="#21201C"/>
<path d="M31.237 100.728C31.223 100.744 31.209 100.744 31.195 100.744L29.4446 100.74C29.4306 100.74 29.4166 100.756 29.4167 100.773L29.4193 101.759C29.4193 101.776 29.4334 101.793 29.4474 101.793L30.5957 101.796C30.6097 101.796 30.6237 101.796 30.6377 101.813C30.6518 101.829 30.6518 101.846 30.6519 101.863L30.6535 102.481C30.6536 102.498 30.6536 102.515 30.6396 102.531C30.6257 102.548 30.6117 102.548 30.5977 102.548L29.4494 102.545C29.4354 102.545 29.4214 102.562 29.4215 102.578L29.4242 103.615C29.4243 103.632 29.4383 103.648 29.4523 103.648L31.2028 103.653C31.2168 103.653 31.2308 103.653 31.2448 103.67C31.2589 103.686 31.2589 103.703 31.259 103.72L31.2606 104.338C31.2606 104.355 31.2607 104.372 31.2467 104.389C31.2328 104.405 31.2188 104.405 31.2048 104.405L28.7401 104.399C28.7261 104.399 28.7121 104.399 28.6981 104.382C28.684 104.365 28.684 104.348 28.6839 104.332L28.6725 100.036C28.6725 100.019 28.6725 100.002 28.6864 99.9855C28.7004 99.9688 28.7144 99.9689 28.7284 99.9689L31.193 99.9753C31.207 99.9754 31.221 99.9754 31.2351 99.9922C31.2491 100.009 31.2491 100.026 31.2492 100.042L31.2508 100.661C31.2509 100.694 31.251 100.711 31.237 100.728Z" fill="#21201C"/>
<path d="M32.4503 104.325C32.24 104.224 32.0715 104.056 31.9589 103.855C31.8464 103.655 31.7897 103.42 31.789 103.153L31.7887 103.019C31.7886 103.002 31.7886 102.986 31.8026 102.969C31.8165 102.952 31.8305 102.952 31.8445 102.952L32.4467 102.954C32.4607 102.954 32.4747 102.954 32.4887 102.971C32.5028 102.988 32.5028 103.004 32.5029 103.021L32.5031 103.121C32.5036 103.288 32.574 103.439 32.7003 103.556C32.8267 103.674 33.0089 103.724 33.2329 103.725C33.415 103.725 33.5549 103.676 33.6526 103.576C33.7504 103.476 33.7921 103.359 33.7917 103.225C33.7915 103.125 33.7632 103.041 33.707 102.974C33.6508 102.907 33.5666 102.84 33.4685 102.79C33.3703 102.739 33.2161 102.655 33.0058 102.571C32.7675 102.47 32.5711 102.369 32.4028 102.269C32.2345 102.168 32.0941 102.034 31.9816 101.85C31.8691 101.665 31.8126 101.465 31.8119 101.197C31.8112 100.946 31.8666 100.713 31.9781 100.529C32.0897 100.345 32.2433 100.195 32.4391 100.096C32.6349 99.9957 32.8588 99.9462 33.1109 99.9468C33.3769 99.9475 33.6151 99.9983 33.8255 100.116C34.0358 100.233 34.2043 100.384 34.3169 100.602C34.4294 100.803 34.5001 101.054 34.5008 101.321L34.5011 101.421C34.5011 101.438 34.5012 101.455 34.4872 101.472C34.4733 101.488 34.4593 101.488 34.4453 101.488L33.8291 101.487C33.8151 101.487 33.8011 101.487 33.7871 101.47C33.773 101.453 33.773 101.436 33.7729 101.42L33.7728 101.369C33.7723 101.186 33.7159 101.035 33.5895 100.918C33.4632 100.8 33.295 100.733 33.0849 100.732C32.9169 100.732 32.791 100.782 32.6932 100.865C32.5954 100.948 32.5537 101.065 32.5541 101.216C32.5544 101.316 32.5826 101.416 32.6388 101.483C32.695 101.551 32.7792 101.618 32.8774 101.685C32.9896 101.735 33.1578 101.819 33.3822 101.92C33.6345 102.038 33.8308 102.122 33.9711 102.206C34.1113 102.29 34.2517 102.424 34.3642 102.591C34.4766 102.759 34.5332 102.976 34.534 103.244C34.535 103.645 34.4098 103.962 34.1723 104.179C33.9349 104.395 33.5991 104.528 33.179 104.527C32.9128 104.476 32.6606 104.426 32.4503 104.325Z" fill="#21201C"/>
</svg>
