<svg width="74" height="98" viewBox="0 0 74 98" fill="none" xmlns="http://www.w3.org/2000/svg">
<path fill-rule="evenodd" clip-rule="evenodd" d="M73 27.988L46.0481 1V27.988H73Z" fill="#182449"/>
<path d="M46.0481 1H1V97H73V27.988M46.0481 1L73 27.988M46.0481 1V27.988H73" stroke="#304384"/>
<path d="M51.7689 61.9231C51.7689 70.0799 45.1565 76.6923 36.9997 76.6923M51.7689 61.9231C51.7689 53.7663 45.1565 47.1539 36.9997 47.1539M51.7689 61.9231H22.2305M36.9997 76.6923C28.8429 76.6923 22.2305 70.0799 22.2305 61.9231M36.9997 76.6923C39.7186 76.6923 41.9228 70.0799 41.9228 61.9231C41.9228 53.7663 39.7186 47.1539 36.9997 47.1539M36.9997 76.6923C34.2808 76.6923 32.0766 70.0799 32.0766 61.9231C32.0766 53.7663 34.2808 47.1539 36.9997 47.1539M22.2305 61.9231C22.2305 53.7663 28.8429 47.1539 36.9997 47.1539" stroke="#3E63DD" stroke-linecap="round" stroke-linejoin="round"/>
</svg>
