<svg xmlns="http://www.w3.org/2000/svg" width="96" height="23" viewBox="0 0 96 23" fill="none">
  <path d="M55.6944 20.2024C55.6944 20.3848 55.752 20.4904 55.8576 20.4904C55.944 20.4808 56.0208 20.4424 56.088 20.3944L86.0112 0.973566C86.5169 0.620161 87.1226 0.438443 87.7392 0.455166H94.3152C95.3232 0.455166 96.0048 1.12717 96.0048 2.13517V14.692C96.0048 16.2088 95.6688 17.092 94.3248 17.8984L86.3472 22.6984C86.2677 22.7536 86.175 22.7867 86.0784 22.7944C85.9824 22.7944 85.8864 22.7176 85.8864 22.4392V7.78957C85.8864 7.61677 85.8384 7.50157 85.7232 7.50157C85.6389 7.51126 85.5591 7.54454 85.4928 7.59757L63.624 21.8056C63.1248 22.1416 62.5392 22.324 61.944 22.3144H47.448C46.4304 22.3144 45.7584 21.6424 45.7584 20.6248V2.52877C45.7584 2.39437 45.7008 2.26957 45.5856 2.26957C45.5016 2.28024 45.422 2.3134 45.3552 2.36557L30.9264 11.0248C30.7824 11.1208 30.744 11.188 30.744 11.2552C30.744 11.3128 30.7728 11.3704 30.8688 11.476L41.1792 21.7768C41.3136 21.9112 41.4096 22.0168 41.4096 22.132C41.4096 22.228 41.256 22.3048 41.0736 22.3048H31.7616C31.032 22.3048 30.4656 22.1992 30.072 21.8056L23.8224 15.5656C23.7987 15.5372 23.7695 15.5141 23.7364 15.4976C23.7034 15.4811 23.6673 15.4715 23.6304 15.4696C23.5627 15.4727 23.4967 15.4925 23.4384 15.5272L12.9936 21.8056C12.36 22.1896 11.928 22.2952 11.304 22.2952H1.69444C0.667239 22.3048 -0.00476074 21.6232 -0.00476074 20.6152V8.29837C-0.00476074 6.77197 0.331239 5.89837 1.68484 5.09197L9.71044 0.272766C9.7734 0.231533 9.84643 0.208295 9.92164 0.205566C10.0464 0.205566 10.1136 0.330366 10.1136 0.608766V17.1016C10.1136 17.2744 10.152 17.3512 10.2768 17.3512C10.3632 17.3416 10.44 17.3032 10.5168 17.2552L37.6272 0.944766C38.1456 0.589566 38.7792 0.416766 39.4128 0.445566H54.0048C55.0128 0.445566 55.6944 1.11757 55.6944 2.12557L55.6848 20.2024H55.6944Z" fill="#EEEEEC"/>
</svg>