<svg width="74" height="98" viewBox="0 0 74 98" fill="none" xmlns="http://www.w3.org/2000/svg">
<path fill-rule="evenodd" clip-rule="evenodd" d="M73 27.988L46.0481 1V27.988H73Z" fill="#381525"/>
<path d="M46.0481 1H1V97H73V27.988M46.0481 1L73 27.988M46.0481 1V27.988H73" stroke="#6D2545"/>
<path d="M19.4698 69V54.4545H24.9244C26.0418 54.4545 26.9793 54.6487 27.7369 55.0369C28.4992 55.4252 29.0745 55.9697 29.4627 56.6705C29.8557 57.3665 30.0522 58.1785 30.0522 59.1065C30.0522 60.0393 29.8533 60.849 29.4556 61.5355C29.0626 62.2173 28.4826 62.7453 27.7156 63.1193C26.9485 63.4886 26.0063 63.6733 24.8888 63.6733H21.0039V61.4858H24.5337C25.1871 61.4858 25.7222 61.3958 26.1388 61.2159C26.5555 61.0312 26.8633 60.7637 27.0621 60.4134C27.2657 60.0582 27.3675 59.6226 27.3675 59.1065C27.3675 58.5904 27.2657 58.1501 27.0621 57.7855C26.8585 57.4162 26.5484 57.1368 26.1317 56.9474C25.7151 56.7533 25.1777 56.6562 24.5195 56.6562H22.1048V69H19.4698ZM26.984 62.4091L30.5849 69H27.6445L24.1076 62.4091H26.984ZM31.8384 56.6634V54.4545H43.4435V56.6634H38.9478V69H36.3342V56.6634H31.8384ZM45.6808 69V54.4545H54.9989V56.6634H48.3157V60.6122H54.3597V62.821H48.3157V69H45.6808Z" fill="#E93D82"/>
</svg>
