<svg xmlns="http://www.w3.org/2000/svg" width="28" height="25" viewBox="0 0 28 25" fill="none">
  <path fill-rule="evenodd" clip-rule="evenodd" d="M5.38353 19.0856L5.97471 23.8738H12.2703C12.6992 24.1871 13.221 24.4767 14.0558 24.5C14.9024 24.4767 15.4356 24.1871 15.8299 23.8738H22.1715L22.7631 19.0856L26.7629 16.1407C27.5632 12.0013 26.4616 8.49994 24.4096 5.7173C22.2181 2.78397 18.4965 0.546252 14.0558 0.5C9.61522 0.5 5.90515 2.69128 3.59787 5.62461C1.74284 8.22169 0.478983 10.9579 1.16322 16.0016C1.70433 16.3955 2.2115 16.77 2.71613 17.1427C3.56302 17.7681 4.40272 18.3882 5.38353 19.0856ZM13.648 9.20474C13.7579 11.9583 13.8695 14.7548 14.0559 17.2304C14.2268 14.9726 14.3139 12.4422 14.4008 9.91478C14.4849 7.47123 14.5689 5.03058 14.7284 2.84215C15.2155 2.76102 15.83 2.78415 16.4559 2.90015C17.0012 3.0624 17.407 3.21308 17.8242 3.51464C17.4916 5.22414 17.125 7.1172 16.7518 9.04399C16.2013 11.8868 15.6365 14.803 15.146 17.3115C15.3908 16.4714 15.6491 15.5836 15.9155 14.6677C16.936 11.1597 18.0762 7.24007 19.0416 4.01313C19.575 4.14069 20.1199 4.45363 20.5604 4.78987C20.9313 5.09124 21.1982 5.38105 21.5691 5.94929C20.7554 7.643 19.8809 9.57195 18.9999 11.5153C18.0355 13.6425 17.0633 15.787 16.1543 17.6591C17.0605 16.1686 18.0634 14.445 19.0758 12.7049C20.2526 10.6824 21.4423 8.63775 22.5079 6.91141C22.8789 7.25921 23.1109 7.50259 23.5167 8.15195C23.8647 8.67357 24.0038 9.27668 24.1196 9.86786C23.405 10.7383 22.6504 11.6637 21.8822 12.6059C20.3073 14.5374 18.6746 16.5396 17.2097 18.2852C18.1821 17.338 19.2597 16.2724 20.352 15.1924C21.7731 13.7872 23.2191 12.3574 24.4907 11.1315C24.6763 11.5373 24.8154 11.92 24.885 12.6852C24.9426 13.3924 24.8383 14.2157 24.6763 14.7489L20.3398 17.9722L19.853 21.5896H15.0533C14.9142 21.8679 14.6009 22.2041 14.0561 22.2388C13.5445 22.2076 13.3996 22.0353 13.122 21.7051C13.0913 21.6685 13.0589 21.63 13.0243 21.5896L8.21258 21.5549L7.74878 17.9491L3.37778 14.7027C3.2271 14.1924 3.08798 13.3461 3.1691 12.6389C3.23866 11.9086 3.37778 11.5375 3.59803 11.097C4.58476 12.0583 5.67754 13.1412 6.78482 14.2386C8.18842 15.6296 9.61532 17.0437 10.879 18.2622C9.22896 16.2682 7.34392 13.9652 5.58666 11.8183C5.03495 11.1442 4.49583 10.4855 3.98053 9.85666C4.05009 9.2653 4.21234 8.65081 4.53702 8.12901C4.90663 7.502 5.18978 7.25338 5.55332 6.93417C5.56617 6.92288 5.57913 6.91151 5.59219 6.90003C6.64168 8.61621 7.80623 10.6315 8.96158 12.6309C9.97608 14.3865 10.9835 16.1299 11.8997 17.6477C10.9752 15.6977 9.954 13.4469 8.94364 11.22C8.10381 9.36889 7.27147 7.53435 6.50842 5.90286C6.8911 5.32324 7.13466 5.07968 7.55202 4.755C7.94608 4.43032 8.49101 4.11738 9.04751 4.00138C9.65313 6.13354 10.3696 8.55048 11.0828 10.9563C11.7347 13.1555 12.3839 15.3454 12.9431 17.2999C12.5264 15.2559 12.0742 12.9303 11.6196 10.5927C11.1381 8.11684 10.654 5.6275 10.2067 3.44489C10.6821 3.17821 11.0879 3.02752 11.6444 2.85353C12.2009 2.76084 12.8734 2.72597 13.3488 2.84197C13.4727 4.80947 13.5598 6.99324 13.648 9.20474Z" fill="#EEEEEC"/>
</svg>