<?xml version="1.0" encoding="UTF-8"?>
<svg xmlns="http://www.w3.org/2000/svg" version="1.1" viewBox="0 0 600 600">
  <defs>
    <style>
      .cls-1 {
        fill: #fff;
      }

      .cls-2 {
        fill: #5119c5;
      }
    </style>
  </defs>
  <!-- Generator: Adobe Illustrator 28.7.1, SVG Export Plug-In . SVG Version: 1.2.0 Build 142)  -->
  <g>
    <g id="Layer_1">
      <g>
        <rect class="cls-1" width="600" height="600"/>
        <g>
          <path class="cls-2" d="M299.8,345.8c-12.6,0-24-7.5-28.8-19.1l-58.3-139.1h34.1l53.1,127.2,53.1-127.2h34.1l-58.6,139.1c-4.9,11.6-16.2,19.1-28.8,19.1Z"/>
          <path class="cls-2" d="M375.8,412.3c-12.6,0-23.9-7.4-28.7-19-4.9-11.6-2.4-24.9,6.5-33.8l106.1-107.5,13.2,31.3-97.1,98.2,138.4-.8,13.2,31.3-151.6.4h0s0,0,0,0Z"/>
          <path class="cls-2" d="M72.5,411.9l13.2-31.3,138.4.8-97.1-98.2,13.2-31.3,106.1,107.5c8.9,9,11.4,22.3,6.5,33.8-4.9,11.5-16.2,19-28.7,19l-151.6-.3h0Z"/>
        </g>
      </g>
    </g>
  </g>
</svg>