<svg width="74" height="98" viewBox="0 0 74 98" fill="none" xmlns="http://www.w3.org/2000/svg">
<path fill-rule="evenodd" clip-rule="evenodd" d="M73 27.988L46.0481 1V27.988H73Z" fill="#092C2B"/>
<path d="M46.0481 1H1V97H73V27.988M46.0481 1L73 27.988M46.0481 1V27.988H73" stroke="#105650"/>
<path d="M21.4418 69H16.5128V54.4545H21.5412C22.9853 54.4545 24.2259 54.7457 25.2628 55.3281C26.3045 55.9058 27.1046 56.7367 27.6634 57.821C28.2221 58.9053 28.5014 60.2027 28.5014 61.7131C28.5014 63.2282 28.2197 64.5303 27.6562 65.6193C27.0975 66.7083 26.2902 67.544 25.2344 68.1264C24.1832 68.7088 22.919 69 21.4418 69ZM19.1477 66.7202H21.3139C22.3272 66.7202 23.1723 66.5355 23.8494 66.1662C24.5265 65.7921 25.0355 65.2358 25.3764 64.4972C25.7173 63.7538 25.8878 62.8258 25.8878 61.7131C25.8878 60.6004 25.7173 59.6771 25.3764 58.9432C25.0355 58.2045 24.5313 57.6529 23.8636 57.2884C23.2008 56.919 22.3769 56.7344 21.392 56.7344H19.1477V66.7202ZM44.0021 61.7273C44.0021 63.2945 43.7086 64.6368 43.1214 65.7543C42.5391 66.867 41.7436 67.7192 40.7351 68.3111C39.7313 68.9029 38.5926 69.1989 37.3189 69.1989C36.0452 69.1989 34.9041 68.9029 33.8956 68.3111C32.8918 67.7145 32.0964 66.8598 31.5092 65.7472C30.9268 64.6297 30.6357 63.2898 30.6357 61.7273C30.6357 60.16 30.9268 58.8201 31.5092 57.7074C32.0964 56.59 32.8918 55.7353 33.8956 55.1435C34.9041 54.5516 36.0452 54.2557 37.3189 54.2557C38.5926 54.2557 39.7313 54.5516 40.7351 55.1435C41.7436 55.7353 42.5391 56.59 43.1214 57.7074C43.7086 58.8201 44.0021 60.16 44.0021 61.7273ZM41.353 61.7273C41.353 60.6241 41.1802 59.6937 40.8345 58.9361C40.4936 58.1738 40.0201 57.5985 39.4141 57.2102C38.808 56.8172 38.1096 56.6207 37.3189 56.6207C36.5282 56.6207 35.8298 56.8172 35.2237 57.2102C34.6177 57.5985 34.1418 58.1738 33.7962 58.9361C33.4553 59.6937 33.2848 60.6241 33.2848 61.7273C33.2848 62.8305 33.4553 63.7633 33.7962 64.5256C34.1418 65.2831 34.6177 65.8584 35.2237 66.2514C35.8298 66.6397 36.5282 66.8338 37.3189 66.8338C38.1096 66.8338 38.808 66.6397 39.4141 66.2514C40.0201 65.8584 40.4936 65.2831 40.8345 64.5256C41.1802 63.7633 41.353 62.8305 41.353 61.7273ZM58.9435 59.3622H56.2873C56.2115 58.9266 56.0719 58.5407 55.8683 58.2045C55.6647 57.8636 55.4113 57.5748 55.1083 57.3381C54.8053 57.1013 54.4596 56.9238 54.0714 56.8054C53.6879 56.6823 53.2736 56.6207 52.8285 56.6207C52.0378 56.6207 51.337 56.8196 50.7262 57.2173C50.1154 57.6103 49.6372 58.188 49.2915 58.9503C48.9459 59.7079 48.7731 60.6335 48.7731 61.7273C48.7731 62.84 48.9459 63.7775 49.2915 64.5398C49.6419 65.2973 50.1201 65.8703 50.7262 66.2585C51.337 66.642 52.0354 66.8338 52.8214 66.8338C53.257 66.8338 53.6642 66.777 54.043 66.6634C54.4265 66.545 54.7698 66.3722 55.0728 66.1449C55.3806 65.9176 55.6386 65.6383 55.8469 65.3068C56.06 64.9754 56.2068 64.5966 56.2873 64.1705L58.9435 64.1847C58.8441 64.8759 58.6287 65.5246 58.2972 66.1307C57.9705 66.7367 57.542 67.2718 57.0117 67.7358C56.4814 68.1951 55.8612 68.5549 55.1509 68.8153C54.4407 69.071 53.6523 69.1989 52.7859 69.1989C51.5075 69.1989 50.3664 68.9029 49.3626 68.3111C48.3588 67.7192 47.5681 66.8646 46.9904 65.7472C46.4128 64.6297 46.1239 63.2898 46.1239 61.7273C46.1239 60.16 46.4151 58.8201 46.9975 57.7074C47.5799 56.59 48.373 55.7353 49.3768 55.1435C50.3806 54.5516 51.5169 54.2557 52.7859 54.2557C53.5955 54.2557 54.3484 54.3693 55.0444 54.5966C55.7404 54.8239 56.3607 55.1577 56.9052 55.598C57.4497 56.0336 57.8971 56.5687 58.2475 57.2031C58.6026 57.8329 58.8346 58.5526 58.9435 59.3622Z" fill="#277F70"/>
</svg>
