<svg width="68" height="68" viewBox="0 0 68 68" fill="none" xmlns="http://www.w3.org/2000/svg">
<g clip-path="url(#clip0_7007_36290)">
<path d="M3.44271 24.0354L0.013115 32.0292H2.24596L2.87876 30.4285H6.55753L7.18706 32.0292H9.46908L6.04277 24.0354H3.44271ZM4.71159 25.8958L5.83293 28.693H3.58697L4.71159 25.8958Z" fill="white"/>
<path d="M9.70515 32.0278V24.034L12.8781 24.0459L14.7237 29.1998L16.525 24.034H19.6726V32.0278H17.6791V26.1377L15.566 32.0278H13.8177L11.6986 26.1377V32.0278H9.70515Z" fill="white"/>
<path d="M21.0366 32.0278V24.034H27.5416V25.8221H23.051V27.1895H27.4367V28.8724H23.051V30.2924H27.5416V32.0278H21.0366Z" fill="white"/>
<path d="M28.6958 24.0354V32.0292H30.6893V29.1893H31.5286L33.9188 32.0292H36.355L33.732 29.0841C34.8085 28.993 35.9189 28.0668 35.9189 26.6288C35.9189 24.9466 34.6019 24.0354 33.1319 24.0354H28.6958ZM30.6893 25.8235H32.968C33.5146 25.8235 33.9123 26.2521 33.9123 26.6649C33.9123 27.196 33.3971 27.5064 32.9975 27.5064H30.6893V25.8235Z" fill="white"/>
<path d="M38.7682 32.0278H36.7327V24.034H38.7682V32.0278Z" fill="white"/>
<path d="M43.5945 32.0278H43.1551C41.0293 32.0278 39.7387 30.3489 39.7387 28.0638C39.7387 25.7223 41.0149 24.034 43.6994 24.034H45.9027V25.9273H43.6189C42.5291 25.9273 41.7584 26.7799 41.7584 28.0835C41.7584 29.6316 42.6397 30.2818 43.9093 30.2818H44.4339L43.5945 32.0278Z" fill="white"/>
<path d="M47.9323 24.0354L44.5027 32.0292H46.7355L47.3684 30.4285H51.0471L51.6767 32.0292H53.9587L50.5324 24.0354H47.9323ZM49.2012 25.8958L50.3225 28.693H48.0766L49.2012 25.8958Z" fill="white"/>
<path d="M54.1915 32.0278V24.034H56.726L59.9621 29.0565V24.034H61.9556V32.0278H59.5031L56.185 26.8739V32.0278H54.1915Z" fill="white"/>
<path d="M14.5315 46.017V38.0232H21.0366V39.8113H16.546V41.1787H20.9317V42.8616H16.546V44.2815H21.0366V46.017H14.5315Z" fill="white"/>
<path d="M46.4064 46.017V38.0232H52.9114V39.8113H48.4208V41.1787H52.7855V42.8616H48.4208V44.2815H52.9114V46.017H46.4064Z" fill="white"/>
<path d="M21.289 46.017L24.4563 42.0694L21.2136 38.0232H23.7252L25.6564 40.5246L27.5941 38.0232H30.0073L26.8072 42.0201L29.9803 46.017H27.4692L25.5941 43.5551L23.7645 46.017H21.289Z" fill="white"/>
<path d="M30.2171 38.0246V46.0184H32.2631V43.494H34.3615C36.137 43.494 37.4829 42.5497 37.4829 40.7133C37.4829 39.192 36.4273 38.0246 34.6205 38.0246H30.2171ZM32.2631 39.8324H34.473C35.0466 39.8324 35.4566 40.1848 35.4566 40.7527C35.4566 41.2862 35.0486 41.673 34.4664 41.673H32.2631V39.8324Z" fill="white"/>
<path d="M38.3485 38.0232V46.017H40.342V43.1771H41.1813L43.5715 46.017H46.0077L43.3847 43.0719C44.4612 42.9809 45.5716 42.0546 45.5716 40.6166C45.5716 38.9344 44.2545 38.0232 42.7846 38.0232H38.3485ZM40.342 39.8113H42.6207C43.1673 39.8113 43.565 40.24 43.565 40.6527C43.565 41.1838 43.0498 41.4942 42.6502 41.4942H40.342V39.8113Z" fill="white"/>
<path d="M53.8347 46.017V44.2815H57.8243C58.4147 44.2815 58.6703 43.9617 58.6703 43.611C58.6703 43.2749 58.4155 42.9352 57.8243 42.9352H56.0215C54.4544 42.9352 53.5816 41.978 53.5816 40.541C53.5816 39.2593 54.3809 38.0232 56.7096 38.0232H60.5916L59.7523 39.8218H56.3948C55.753 39.8218 55.5554 40.1594 55.5554 40.4818C55.5554 40.8132 55.7996 41.1787 56.2899 41.1787H58.1785C59.9254 41.1787 60.6834 42.172 60.6834 43.4729C60.6834 44.8715 59.8387 46.017 58.0834 46.017H53.8347Z" fill="white"/>
<path fill-rule="evenodd" clip-rule="evenodd" d="M67.8311 0.000183105H0V28.6622L2.54273 22.7193H6.94012L8.38315 26.0482V22.7193H13.8495L14.7085 25.1253L15.5414 22.7193H40.0797V23.9289C40.0797 23.9289 41.3696 22.7193 43.4896 22.7193L51.4513 22.7472L52.8695 26.0325V22.7193H57.444L58.7031 24.6064V22.7193H63.3196V33.3952H58.7031L57.4965 31.5019V33.3952H50.7755L50.0996 31.7123H48.2927L47.6278 33.3952H43.0699C41.2457 33.3952 40.0797 32.2103 40.0797 32.2103V33.3952H33.2074L31.8434 31.7123V33.3952H6.28868L5.61325 31.7123H3.81218L3.14153 33.3952L0 33.3954V68.0002H67.8311V46.6483C67.8311 46.6483 66.7608 47.3737 65.5229 47.3844H42.8601L41.4961 45.7015V47.3844H37.0265V44.5116C37.0265 44.5116 36.4159 44.9126 35.0959 44.9126H33.5746V47.3844H26.8072L25.5992 45.7695L24.3726 47.3844H13.1675V36.7084H24.4433L25.6531 38.2894L26.9029 36.7084L67.8311 36.7086V0.000183105ZM2.24596 32.0292H0.013115L3.44271 24.0354H6.04277L9.46908 32.0292H7.18706L6.55753 30.4285H2.87876L2.24596 32.0292ZM14.5315 46.017V38.0232H21.0366V39.8113H16.546V41.1787H20.9317V42.8616H16.546V44.2815H21.0366V46.017H14.5315ZM52.9114 46.017H46.4064V38.0232H52.9114V39.8113H48.4208V41.1787H52.7855V42.8616H48.4208V44.2815H52.9114V46.017ZM21.289 46.017L24.4563 42.0694L21.2136 38.0232H23.7252L25.6564 40.5246L27.5941 38.0232H30.0073L26.8072 42.0201L29.9803 46.017H27.4692L25.5941 43.5551L23.7645 46.017H21.289ZM30.2171 38.0246V46.0184H32.2631V43.494H34.3615C36.137 43.494 37.4829 42.5497 37.4829 40.7133C37.4829 39.192 36.4273 38.0246 34.6205 38.0246H30.2171ZM42.7846 38.0232H38.3485V46.017H40.342V43.1771H41.1813L43.5715 46.017H46.0077L43.3847 43.0719C44.4612 42.9809 45.5716 42.0546 45.5716 40.6166C45.5716 38.9344 44.2545 38.0232 42.7846 38.0232ZM53.8347 46.017V44.2815H57.8243C58.4147 44.2815 58.6703 43.9617 58.6703 43.611C58.6703 43.2749 58.4155 42.9352 57.8243 42.9352H56.0215C54.4544 42.9352 53.5816 41.978 53.5816 40.541C53.5816 39.2593 54.3809 38.0232 56.7096 38.0232H60.5916L59.7523 39.8218H56.3948C55.753 39.8218 55.5554 40.1594 55.5554 40.4818C55.5554 40.8132 55.7996 41.1787 56.2899 41.1787H58.1785C59.9254 41.1787 60.6834 42.172 60.6834 43.4729C60.6834 44.8715 59.8387 46.017 58.0834 46.017H53.8347ZM9.70515 24.034V32.0278H11.6986V26.1377L13.8177 32.0278H15.566L17.6791 26.1377V32.0278H19.6726V24.034H16.525L14.7237 29.1998L12.8781 24.0459L9.70515 24.034ZM21.0366 24.034V32.0278H27.5416V30.2924H23.051V28.8724H27.4367V27.1895H23.051V25.8221H27.5416V24.034H21.0366ZM28.6958 32.0292V24.0354H33.1319C34.6019 24.0354 35.9189 24.9466 35.9189 26.6288C35.9189 28.0668 34.8085 28.993 33.732 29.0841L36.355 32.0292H33.9188L31.5286 29.1893H30.6893V32.0292H28.6958ZM36.7327 32.0278H38.7682V24.034H36.7327V32.0278ZM43.1551 32.0278H43.5945L44.4339 30.2818H43.9093C42.6397 30.2818 41.7584 29.6316 41.7584 28.0835C41.7584 26.7799 42.5291 25.9273 43.6189 25.9273H45.9027V24.034H43.6994C41.0149 24.034 39.7387 25.7223 39.7387 28.0638C39.7387 30.3489 41.0293 32.0278 43.1551 32.0278ZM44.5027 32.0292L47.9323 24.0354H50.5324L53.9587 32.0292H51.6767L51.0471 30.4285H47.3684L46.7355 32.0292H44.5027ZM54.1915 24.034V32.0278H56.185V26.8739L59.5031 32.0278H61.9556V24.034H59.9621V29.0565L56.726 24.034H54.1915ZM5.83293 28.693L4.71159 25.8958L3.58697 28.693H5.83293ZM32.968 25.8235H30.6893V27.5064H32.9975C33.3971 27.5064 33.9123 27.196 33.9123 26.6649C33.9123 26.2521 33.5146 25.8235 32.968 25.8235ZM32.2631 39.8324H34.473C35.0466 39.8324 35.4566 40.1848 35.4566 40.7527C35.4566 41.2862 35.0486 41.673 34.4664 41.673H32.2631V39.8324ZM42.6207 39.8113H40.342V41.4942H42.6502C43.0498 41.4942 43.565 41.1838 43.565 40.6527C43.565 40.24 43.1673 39.8113 42.6207 39.8113ZM49.2012 25.8958L50.3225 28.693H48.0766L49.2012 25.8958Z" fill="white"/>
<path d="M61.1513 44.2815V46.017H65.3999C66.0843 46.017 66.6302 45.8429 67.0416 45.5476C67.414 45.2803 67.6762 44.9137 67.8311 44.4869C67.9441 44.1758 68 43.8328 68 43.4729C68 43.1232 67.9452 42.7957 67.8311 42.5037C67.5209 41.7097 66.7723 41.1787 65.495 41.1787H64.9774H63.6065C63.1162 41.1787 62.872 40.8132 62.872 40.4818C62.872 40.1594 63.0696 39.8218 63.7114 39.8218H65.8436H67.0688L67.8311 38.1883V38.0232H66.9919H64.0261C61.6974 38.0232 60.8982 39.2593 60.8982 40.541C60.8982 41.978 61.771 42.9352 63.3381 42.9352H65.1409L65.1679 42.9354C65.7398 42.9456 65.9868 43.2801 65.9868 43.611C65.9868 43.7308 65.957 43.847 65.8942 43.948C65.7732 44.1429 65.5296 44.2815 65.1409 44.2815H61.1513Z" fill="white"/>
</g>
<defs>
<clipPath id="clip0_7007_36290">
<rect width="68" height="68" fill="white"/>
</clipPath>
</defs>
</svg>
