<svg xmlns="http://www.w3.org/2000/svg" width="24" height="25" viewBox="0 0 24 25" fill="none">
  <path fill-rule="evenodd" clip-rule="evenodd" d="M12 24.5C5.38313 24.5 0 19.1168 0 12.5C0 5.88315 5.38313 0.5 12 0.5C18.6167 0.5 24 5.88318 24 12.5C24 19.1168 18.6168 24.5 12 24.5ZM14.0311 7.85852H7.24928L6.2203 9.51213H12.9943L14.0311 7.85852ZM15.417 7.87429L11.2711 14.4758H6.67243L7.7334 12.8208H10.4897L11.5425 11.1665H5.17052L4.11786 12.8208H5.62737L3.53299 16.1251H12.2735L15.5019 11.0338L16.679 12.8208H15.6176L14.6124 14.4758H17.7555L18.8469 16.1251H20.8519L15.417 7.87429Z" fill="#EEEEEC"/>
</svg>