<svg width="74" height="98" viewBox="0 0 74 98" fill="none" xmlns="http://www.w3.org/2000/svg">
<path fill-rule="evenodd" clip-rule="evenodd" d="M73 27.988L46.0481 1V27.988H73Z" fill="#301C3B"/>
<path d="M46.0481 1H1V97H73V27.988M46.0481 1L73 27.988M46.0481 1V27.988H73" stroke="#54346B"/>
<path d="M30.4356 68.4872L35.1596 63.7632M35.1596 63.7632C36.0505 64.6541 37.2813 65.2052 38.6407 65.2052C41.3597 65.2052 43.5638 63.001 43.5638 60.2821C43.5638 57.5631 41.3597 55.359 38.6407 55.359C35.9218 55.359 33.7176 57.5631 33.7176 60.2821C33.7176 61.6415 34.2687 62.8723 35.1596 63.7632ZM51.7689 61.9231C51.7689 70.0799 45.1565 76.6923 36.9997 76.6923C28.8429 76.6923 22.2305 70.0799 22.2305 61.9231C22.2305 53.7663 28.8429 47.1539 36.9997 47.1539C45.1565 47.1539 51.7689 53.7663 51.7689 61.9231Z" stroke="#8E4EC6" stroke-linecap="round"/>
</svg>
