<svg width="74" height="98" viewBox="0 0 74 98" fill="none" xmlns="http://www.w3.org/2000/svg">
<path fill-rule="evenodd" clip-rule="evenodd" d="M73 27.988L46.0481 1V27.988H73Z" fill="#3B1219"/>
<path d="M46.0481 1H1V97H73V27.988M46.0481 1L73 27.988M46.0481 1V27.988H73" stroke="#72232D"/>
<path d="M18.8936 69V54.4545H24.3482C25.4656 54.4545 26.4031 54.6629 27.1607 55.0795C27.923 55.4962 28.4983 56.0691 28.8865 56.7983C29.2795 57.5227 29.476 58.3466 29.476 59.2699C29.476 60.2027 29.2795 61.0312 28.8865 61.7557C28.4935 62.4801 27.9135 63.0507 27.1465 63.4673C26.3794 63.8793 25.4348 64.0852 24.3127 64.0852H20.6976V61.919H23.9576C24.611 61.919 25.146 61.8054 25.5627 61.5781C25.9793 61.3509 26.2871 61.0384 26.486 60.6406C26.6896 60.2429 26.7914 59.786 26.7914 59.2699C26.7914 58.7538 26.6896 58.2992 26.486 57.9062C26.2871 57.5133 25.977 57.2079 25.5556 56.9901C25.1389 56.7675 24.6015 56.6562 23.9434 56.6562H21.5286V69H18.8936ZM36.6937 69H31.7647V54.4545H36.7931C38.2373 54.4545 39.4778 54.7457 40.5147 55.3281C41.5564 55.9058 42.3566 56.7367 42.9153 57.821C43.474 58.9053 43.7534 60.2027 43.7534 61.7131C43.7534 63.2282 43.4717 64.5303 42.9082 65.6193C42.3495 66.7083 41.5422 67.544 40.4863 68.1264C39.4352 68.7088 38.171 69 36.6937 69ZM34.3997 66.7202H36.5659C37.5791 66.7202 38.4243 66.5355 39.1014 66.1662C39.7785 65.7921 40.2875 65.2358 40.6284 64.4972C40.9693 63.7538 41.1397 62.8258 41.1397 61.7131C41.1397 60.6004 40.9693 59.6771 40.6284 58.9432C40.2875 58.2045 39.7832 57.6529 39.1156 57.2884C38.4527 56.919 37.6288 56.7344 36.644 56.7344H34.3997V66.7202ZM46.2569 69V54.4545H55.5751V56.6634H48.8919V60.6122H54.9359V62.821H48.8919V69H46.2569Z" fill="#E5484D"/>
</svg>
