<svg width="64" height="64" viewBox="0 0 64 64" fill="none" xmlns="http://www.w3.org/2000/svg">
<path fill-rule="evenodd" clip-rule="evenodd" d="M32 64C49.1208 64 63 50.1208 63 33C63 15.8792 49.1208 2 32 2C14.8792 2 1 15.8792 1 33C1 38.5598 2.46364 43.7778 5.02662 48.2896L1 64L17.1972 60.2441C21.5959 62.6392 26.639 64 32 64ZM32 59.2308C46.4869 59.2308 58.2308 47.4869 58.2308 33C58.2308 18.5131 46.4869 6.76923 32 6.76923C17.5131 6.76923 5.76923 18.5131 5.76923 33C5.76923 38.5934 7.51997 43.778 10.5034 48.0355L8.15385 56.8462L17.1198 54.6047C21.3479 57.5222 26.4744 59.2308 32 59.2308Z" fill="#BFC8D0"/>
<path d="M58 30.5C58 45.1355 46.3594 57 32 57C26.523 57 21.4416 55.2739 17.2508 52.3264L8.36364 54.5909L10.6925 45.6898C7.73534 41.3886 6 36.1508 6 30.5C6 15.8645 17.6406 4 32 4C46.3594 4 58 15.8645 58 30.5Z" fill="url(#paint0_linear_622_95997)"/>
<path fill-rule="evenodd" clip-rule="evenodd" d="M32 62C49.1208 62 63 48.1208 63 31C63 13.8792 49.1208 0 32 0C14.8792 0 1 13.8792 1 31C1 36.5598 2.46364 41.7778 5.02662 46.2896L1 62L17.1972 58.2441C21.5959 60.6392 26.639 62 32 62ZM32 57.2308C46.4869 57.2308 58.2308 45.4869 58.2308 31C58.2308 16.5131 46.4869 4.76923 32 4.76923C17.5131 4.76923 5.76923 16.5131 5.76923 31C5.76923 36.5934 7.51997 41.778 10.5034 46.0355L8.15385 54.8462L17.1198 52.6047C21.3479 55.5222 26.4744 57.2308 32 57.2308Z" fill="white"/>
<path d="M24.131 17.3178C23.4032 15.8752 22.2867 16.0029 21.1588 16.0029C19.1431 16.0029 16 18.3857 16 22.8202C16 26.4545 17.6228 30.4329 23.0911 36.3842C28.3684 42.1276 35.3025 45.0986 41.0591 44.9975C46.8156 44.8964 48 40.0077 48 38.3568C48 37.625 47.5399 37.2599 47.2229 37.1607C45.2612 36.2316 41.6431 34.5005 40.8199 34.1752C39.9967 33.85 39.5668 34.2899 39.2996 34.5292C38.5531 35.2313 37.0732 37.3005 36.5665 37.7659C36.0598 38.2313 35.3044 37.9957 34.9901 37.8198C33.8333 37.3617 30.6968 35.9849 28.1966 33.5931C25.1046 30.6352 24.9232 29.6175 24.3406 28.7116C23.8746 27.9869 24.2166 27.5423 24.3872 27.348C25.0534 26.5894 25.9733 25.4182 26.3858 24.8362C26.7983 24.2542 26.4708 23.3706 26.2743 22.8202C25.4292 20.4533 24.7132 18.4719 24.131 17.3178Z" fill="white"/>
<defs>
<linearGradient id="paint0_linear_622_95997" x1="54.75" y1="10.625" x2="5.1366" y2="56.0571" gradientUnits="userSpaceOnUse">
<stop stop-color="#5BD066"/>
<stop offset="1" stop-color="#27B43E"/>
</linearGradient>
</defs>
</svg>
