<svg width="74" height="98" viewBox="0 0 74 98" fill="none" xmlns="http://www.w3.org/2000/svg">
<path fill-rule="evenodd" clip-rule="evenodd" d="M73 27.988L46.0481 1V27.988H73Z" fill="#132D21"/>
<path d="M46.0481 1H1V97H73V27.988M46.0481 1L73 27.988M46.0481 1V27.988H73" stroke="#20573E"/>
<path d="M18.188 56.6634V54.4545H29.7931V56.6634H25.2974V69H22.6838V56.6634H18.188ZM34.2321 54.4545L37.4352 59.7812H37.5488L40.7662 54.4545H43.7704L39.2889 61.7273L43.8414 69H40.7875L37.5488 63.7088H37.4352L34.1966 69H31.1568L35.752 61.7273L31.2136 54.4545H34.2321ZM45.1998 56.6634V54.4545H56.8049V56.6634H52.3091V69H49.6955V56.6634H45.1998Z" fill="#30A46C"/>
</svg>
