<svg width="53" height="46" viewBox="0 0 53 46" fill="none" xmlns="http://www.w3.org/2000/svg">
<path d="M17.3638 40.9715C17.7003 40.2787 18.922 39.5009 19.0115 39.9242C19.3577 41.5224 18.1952 42.4387 18.082 42.4845C18.082 42.4845 18.192 41.6336 17.3638 40.9715ZM48.636 8.0402C52.214 6.66566 52.5073 4.68675 52.5073 4.68675C52.5397 4.43148 52.3919 4.55148 52.2561 4.67366C52.1741 4.75111 52.0835 4.82639 52.0835 4.82639C50.4746 6.14748 47.7087 7.33547 47.7087 7.33547C47.1878 7.47511 47.603 7.04202 47.603 7.04202C52.4124 3.01548 51.8226 1.39548 51.8226 1.39548C51.7471 1.16857 51.5541 1.32348 51.3912 1.49693C51.2737 1.62239 51.1572 1.75548 51.1572 1.75548C47.2007 5.89657 45.1131 6.29148 45.1131 6.29148C44.5577 6.27184 44.9599 5.82238 44.9599 5.82238C49.4135 2.41875 49.2248 0.570752 49.2248 0.570752C49.1784 -0.185248 48.6403 0.613297 48.6403 0.613297C47.0487 3.1093 43.64 4.93875 43.64 4.93875C42.8507 5.32275 43.2486 4.71511 43.2486 4.71511C44.4908 3.41039 44.9804 1.89184 44.9804 1.89184C45.1508 1.04748 44.2698 2.00202 44.2698 2.00202C42.8086 3.77257 34.6272 7.85584 34.6272 7.85584C28.1743 10.6257 26.7077 18.5086 26.7077 18.5086C25.0374 23.7656 22.4482 24.058 22.4482 24.058C19.7804 21.6536 17.5795 16.7904 17.5795 16.7904C16.3081 13.5678 11.7025 11.0697 8.87071 9.07766C7.00624 7.76202 7.00193 7.45766 6.16405 6.55766C6.09934 6.85111 6.20934 7.21111 6.26433 7.25366C2.45991 5.3522 3.27406 0.195479 3.27406 0.195479C3.29563 -0.087066 3.09721 -0.0194297 2.98291 0.150752C2.10081 1.41293 2.51275 4.79475 2.51275 4.79475C1.65761 4.44784 1.52605 1.15439 1.52605 1.15439C1.39881 0.918752 1.21333 1.61257 1.21333 1.61257C0.762578 3.3253 1.21333 6.56747 1.21333 6.56747C0.452013 6.37984 0.372215 3.90129 0.372215 3.90129C0.202913 3.57948 0.130664 4.10639 0.130664 4.10639C-0.634966 8.99257 2.21404 11.1766 2.21404 11.1766C1.6533 11.1078 0.755031 10.3944 0.755031 10.3944C0.432604 10.2711 1.09148 11.158 1.09148 11.158C1.79025 12.1191 2.02533 11.9118 3.2072 12.9853C3.29671 13.1587 2.24316 12.9264 2.24316 12.9264C2.06415 13.1293 2.61519 13.4827 2.61519 13.4827C3.35063 14.0795 4.2435 14.7995 4.2435 14.7995C4.34271 14.986 3.31827 14.8955 3.31827 14.8955C3.1824 15.1649 5.54507 16.0322 5.54507 16.0322C6.76469 16.4609 7.98646 16.882 9.14138 17.458C10.2736 18.0264 11.3121 18.778 12.3452 19.4838C12.6428 19.6911 12.9782 19.9147 13.2434 20.1656C14.4382 21.2762 15.5241 22.6213 15.8638 24.2696C16.0299 25.0867 14.4965 25.4653 14.4965 25.4653C10.5874 26.9969 11.4588 28.7249 11.4588 28.7249C10.0353 30.046 11.4663 31.3649 11.4663 31.3649C11.4167 30.8827 11.8081 30.3067 11.8081 30.3067C12.2028 29.8518 12.3646 30.2173 12.3646 30.2173C12.0993 30.8238 12.2222 30.9067 12.2222 30.9067C12.6115 30.3711 13.6155 30.3951 13.6155 30.3951C14.8987 30.2511 15.3279 29.8813 15.3279 29.8813C19.1754 29.0009 18.4443 33.5216 18.4443 33.5216C18.4023 33.9907 18.2934 34.4478 18.1435 34.8929C17.999 35.3369 17.2075 36.946 17.1751 37.0682C17.1913 37.066 17.215 37.0715 17.2301 37.066C17.2355 37.1631 17.1438 37.3082 17.1115 37.3976C17.0619 37.5242 16.7966 38.158 16.7287 38.4907C16.5572 39.3155 16.2035 40.2918 15.5177 40.0224C15.0971 39.8544 14.7068 39.61 14.2916 39.4289C13.8193 39.2238 13.2618 39.01 12.7388 39.1115C12.5598 39.1442 12.3139 39.262 12.1813 39.3875C12.1122 39.4551 11.9192 39.7453 11.9667 39.9329C12.1424 39.7562 12.439 39.6918 12.6795 39.6667C12.8024 39.6525 12.9318 39.6493 13.0569 39.6667C13.1151 39.6765 13.1647 39.6842 13.2165 39.706C13.2305 39.7115 13.3275 39.7671 13.3319 39.7671C13.2176 39.8131 13.1137 39.8821 13.0267 39.97C12.8942 40.1166 12.8026 40.2962 12.7614 40.4904C12.7474 40.5645 12.6762 40.8918 12.7247 40.9529C12.7679 40.9311 12.7916 40.8765 12.8304 40.8471C12.8951 40.7969 12.9512 40.7435 13.017 40.6955C13.1205 40.618 13.2337 40.5536 13.3534 40.5111C13.454 40.4747 13.5605 40.4584 13.6672 40.4631C13.7168 40.4631 13.7697 40.4685 13.8203 40.4784C13.8365 40.4838 13.9433 40.5264 13.9551 40.5198C13.7643 40.6485 13.5993 40.8384 13.5799 41.0762C13.5486 41.3838 13.623 41.5682 13.6953 41.6565C13.7405 41.7133 13.7352 41.6795 13.7535 41.6216C14.0037 40.8885 15.1284 41.2333 15.6039 41.4602C15.6945 41.5049 15.784 41.5551 15.8735 41.6075C16.2143 41.8093 16.899 42.3547 17.311 42.3515C17.3185 42.358 17.6312 42.3809 17.7078 42.5445C17.731 42.593 17.7442 42.6457 17.7466 42.6995C17.2635 42.838 15.852 43.042 15.2502 43.5482C15.1725 43.6071 15.1076 43.6816 15.0595 43.767C15.0115 43.8523 14.9813 43.9468 14.971 44.0445C14.9418 44.3522 15.1802 44.6064 15.219 44.6205C15.2308 44.5933 15.2308 44.5584 15.2416 44.5289C15.3139 44.336 15.4568 44.1786 15.6406 44.0893C15.7193 44.0478 15.8131 44.0151 15.9016 43.9878C15.9403 43.9765 15.98 43.9688 16.0202 43.9649C16.0396 43.9649 16.1118 43.9671 16.1259 43.9562C15.9598 44.1264 15.8487 44.35 15.8962 44.5911C15.9285 44.7613 16.0418 44.9598 16.1906 45.0536C16.224 45.0242 16.1367 44.806 16.5087 44.5638C16.7049 44.4362 16.94 44.3609 17.0802 44.3587C16.9969 44.4716 16.94 44.6021 16.9138 44.7404C16.8877 44.8788 16.893 45.0213 16.9292 45.1573C16.9584 45.274 17.008 45.3864 17.0748 45.4922C17.1244 45.5642 17.2042 45.694 17.2873 45.7333C17.3228 45.7115 17.3067 45.6165 17.3099 45.5685C17.3186 45.4988 17.3353 45.4304 17.3595 45.3645C17.4026 45.2325 17.4619 45.1049 17.5428 44.9893C17.6895 44.7569 17.8739 44.59 18.1046 44.4384C18.4465 44.2147 19.6036 44.0598 19.8764 44.2627C20.0845 44.4689 20.7013 45.0165 21.3818 44.8725C21.5079 44.8704 21.6341 44.9871 21.7171 45.1496L21.7452 45.2194C21.7998 45.3516 21.8115 45.4979 21.7786 45.6373C21.7613 45.7333 21.8217 45.6656 21.8541 45.634C22.0154 45.4515 22.1011 45.2132 22.0935 44.9685C22.0794 44.7045 21.9608 44.4569 21.8109 44.2442C21.7635 44.1765 21.7106 44.0925 21.6449 44.0413C21.2351 43.6987 20.6506 43.5002 20.4479 43.4336C20.2376 43.2973 19.9303 42.6776 20.2603 42.0504C20.3144 41.9481 20.3839 41.855 20.4662 41.7744C20.5611 41.6795 20.738 41.7285 20.8242 41.7951C21.0086 41.9402 20.9979 42.2369 21.1057 42.4409C21.1726 42.4049 21.2071 42.3067 21.2383 42.2369C21.2825 42.1267 21.3041 42.0078 21.3505 41.9009C21.3979 41.8027 21.4508 41.7067 21.5036 41.6151C21.7618 41.2041 22.0866 40.8401 22.4644 40.5384L22.4709 40.5296L22.5032 40.5089C22.5032 40.5089 22.6445 41.0598 22.9184 41.2638C22.9057 41.1643 22.9046 41.0636 22.9152 40.9638C22.9583 40.4947 23.1794 39.8009 23.4446 39.1878C23.4446 39.2173 23.4511 39.2413 23.4511 39.2707C23.4845 39.5664 23.6635 39.7333 23.7897 39.67C23.8048 39.4355 23.8404 39.2249 23.89 39.0362C24.2696 38.1613 24.8853 37.6878 25.0557 37.6758C25.541 37.5416 25.3479 38.3576 25.3479 38.3576C25.1161 39.0645 24.2761 40.1009 24.0679 40.354C23.8328 40.7053 23.4856 41.3282 23.794 41.7438C23.8307 41.7885 23.8221 41.7809 23.8781 41.7525C23.9116 41.7296 23.9428 41.7024 23.9774 41.6849C24.1121 41.6293 24.2016 41.7122 24.2512 41.8322C24.3375 42.0296 24.2016 42.2773 24.3645 42.4431C24.468 42.5522 24.5014 42.4355 24.6384 42.4191C24.9101 42.3907 25.0816 42.6558 25.1732 42.8795C25.2336 43.0224 25.2207 43.0802 25.3727 43.0442C25.5129 43.0191 25.5895 42.9405 25.734 42.9547C25.8742 42.9689 25.9863 43.0082 26.0898 43.1096C26.1621 43.1805 26.2052 43.3158 26.3001 43.3715C26.4942 43.4805 26.6862 43.2122 26.877 43.282C27.2027 43.3987 27.3267 43.7653 27.3267 43.7653C27.5338 44.2878 28.1312 43.9158 28.1312 43.9158C28.7307 43.6202 29.2645 44.3391 29.2645 44.3391C29.6754 44.7842 30.1919 44.4078 30.1919 44.4078C30.3439 44.2682 30.565 44.2507 30.7634 44.2835C30.8508 44.2944 30.9424 44.3151 31.0309 44.3478C31.0956 44.374 31.1635 44.3882 31.2196 44.4329C31.28 44.4755 31.3252 44.5376 31.3899 44.5758C31.5334 44.6631 31.7048 44.6707 31.8666 44.6358C32.1254 44.5791 32.23 44.4864 32.2677 44.4569C32.3087 44.4209 32.3346 44.3675 32.3702 44.3216C32.3855 44.2971 32.4036 44.2744 32.4241 44.254C32.5352 44.1558 32.7023 44.0947 32.8414 44.0511C32.9099 44.0295 32.981 44.0174 33.0528 44.0151C33.0851 44.0151 33.1218 44.0085 33.1606 44.0151C33.2221 44.0216 33.2868 44.0533 33.3472 44.0707C33.4022 44.0838 33.4593 44.0947 33.5175 44.1002C33.6092 44.1081 33.7013 44.0919 33.785 44.0533C33.8686 44.0095 33.9399 43.945 33.992 43.8656C34.0362 43.8013 34.0524 43.7347 34.1106 43.6758C34.2314 43.5525 34.4395 43.5482 34.5937 43.6016L34.7059 43.642C35.0456 43.8144 35.4197 43.8176 35.5793 43.4227C35.6451 43.258 35.6451 43.1096 35.8306 43.0311C35.9934 42.9656 36.1918 43.0005 36.3493 42.8904C36.4895 42.79 36.5067 42.5642 36.6404 42.4475C36.813 42.2915 37.1106 42.4649 37.2788 42.2424C37.5549 41.8867 36.9963 40.3824 36.2307 39.9013C35.5567 39.4736 34.8353 39.1278 34.198 38.6522C31.0513 36.3176 29.3411 32.2365 29.3411 32.2365L29.3012 32.1166C30.1013 32.266 31.1257 33.4649 31.1257 33.4649C31.5366 33.9253 31.8439 34.0551 32.2666 34.2024C32.3464 34.2275 32.9374 34.3878 33.0129 34.1609C32.915 34.1011 32.8368 34.0134 32.7881 33.9088C32.7394 33.8042 32.7223 33.6873 32.739 33.5729C32.8058 33.202 33.1973 33.3275 33.4075 33.4082C33.5617 33.4671 34.0114 33.6395 34.1494 33.7638C34.2627 33.6962 34.2972 33.4551 34.3069 33.3329C34.3231 33.1573 34.2756 32.9358 34.2508 32.7635C34.2379 32.6544 34.1333 32.4449 34.2735 32.3718C34.3759 32.3184 34.5754 32.4384 34.6649 32.506C34.7945 32.5981 34.9396 32.6658 35.093 32.7056C35.1167 32.7089 35.4629 32.7809 35.4715 32.7329C35.5858 32.1362 35.2806 31.3693 35.2806 31.3693C35.2138 30.9984 35.8662 30.9591 36.0409 31.1686C36.0603 31.1904 36.0786 31.246 36.1077 31.2482C36.1509 31.2591 36.1951 31.1446 36.2048 31.1118C36.2303 31.0416 36.2466 30.9682 36.2533 30.8936C36.2663 30.7507 36.2533 30.6056 36.221 30.4627C36.1746 30.2544 35.9363 30.022 36.0064 29.7962C36.0905 29.5224 36.3741 29.6053 36.5563 29.7176C36.6329 29.7711 36.7073 29.818 36.7774 29.8747C36.799 29.8911 36.8151 29.9031 36.8324 29.9195C36.8561 29.9435 36.8788 29.9969 36.9079 30.0111C36.9564 30.0286 37.0092 29.8693 37.0222 29.8322C37.0474 29.7434 37.0612 29.6518 37.0632 29.5595C37.0632 29.374 37.0308 29.1842 36.9586 29.014C36.8874 28.8384 36.5466 28.5536 36.8788 28.4686C36.9734 28.4426 37.0735 28.4453 37.1667 28.4762C37.2594 28.51 37.3209 28.5744 37.3931 28.6333C37.4309 28.6595 37.4363 28.654 37.4643 28.6093C37.5131 28.4638 37.515 28.3064 37.4697 28.1598C37.3985 27.9329 37.2486 27.7398 37.1074 27.5478C36.8313 27.0929 37.5495 26.9086 37.5495 26.9086C37.6929 26.8835 37.9916 26.8442 38.1404 26.9086C38.1879 26.9304 38.2375 26.9446 38.2849 26.9729C38.3173 26.998 38.3388 26.9336 38.3518 26.9009C38.4866 26.5016 38.0617 26.1286 37.7619 25.9475C37.7565 25.9442 37.749 25.942 37.7458 25.9387C37.5808 25.798 37.6164 25.6006 37.7727 25.4696C37.9377 25.3322 38.121 25.3235 38.3227 25.3573C38.3831 25.3682 38.4305 25.4162 38.4909 25.4162C38.5631 25.4216 38.5513 25.234 38.5459 25.1871C38.5227 25.0522 38.4617 24.9269 38.3701 24.826C38.2353 24.6842 37.8827 24.5326 38.079 24.2795C38.1825 24.1529 38.424 24.0907 38.575 24.0853C38.7616 24.0776 38.9136 24.2696 38.9492 23.9936C38.9702 23.7881 38.9328 23.5806 38.8414 23.3958C38.8036 23.3347 38.7368 23.2976 38.6925 23.2475C38.5427 23.074 38.5869 22.7696 38.7767 22.642C38.8765 22.5798 38.9899 22.5431 39.107 22.5351C39.224 22.5271 39.3412 22.5481 39.4485 22.5962C39.5294 22.4762 39.4894 22.2798 39.4215 22.1653C39.346 22.0376 39.1864 21.9951 39.1627 21.8369C39.1411 21.6973 39.235 21.5631 39.3352 21.4758C39.5153 21.3056 39.7536 21.2413 39.9434 21.0787C40.048 20.9893 40.1969 20.7602 40.0847 20.6336C39.9294 20.6816 39.6749 20.6391 39.5897 20.4787C39.4657 20.2409 39.8928 20.1253 40.075 20.0762C40.2152 20.0424 40.3511 20.0173 40.4902 19.9889C41.0671 19.8656 41.2148 19.6976 41.1782 19.4555C41.0466 19.4642 40.8633 19.4533 40.7835 19.3551C40.5204 19.0115 40.9517 18.7715 41.2008 18.7638C41.492 18.7551 41.7561 18.7638 42.0495 18.7682C42.6792 18.7791 42.7008 18.4376 42.7008 18.4376C41.8273 18.0864 42.1616 17.7111 42.1616 17.7111C42.9531 17.1831 43.7403 17.5769 44.3593 17.2027C44.5825 17.0642 44.5674 16.9366 44.5674 16.9366C44.1854 16.901 43.8072 16.8313 43.4373 16.7282C43.2367 16.6726 43.3424 16.4282 43.3424 16.4282C43.4028 15.9777 45.1486 16.1489 45.9466 15.9111C46.6497 15.6973 46.4405 15.3427 46.4405 15.3427C45.8906 15.4191 45.2651 15.0362 45.2651 15.0362C45.0613 14.674 45.9725 14.7286 45.9725 14.7286C47.3528 14.6478 47.5275 13.9387 47.5275 13.9387C47.6224 13.6464 46.9376 13.9202 46.9376 13.9202C46.0534 14.0827 46.0566 13.6409 46.0566 13.6409C46.0501 13.2777 47.0228 13.1326 47.0228 13.1326C49.227 12.7617 50.3377 11.3631 50.3377 11.3631C50.4088 11.23 50.3959 11.1395 50.3086 11.1209C50.1058 11.0751 49.6292 11.2747 49.6292 11.2747C48.3492 11.8835 46.7888 11.9249 46.7888 11.9249C46.6206 11.9195 46.5861 11.8049 46.5839 11.7417C46.5764 11.5867 46.8643 11.4373 46.8643 11.4373C47.4078 11.2104 49.695 10.4817 50.865 9.64493C51.9886 8.84311 52.131 7.8482 52.131 7.8482C52.1817 7.50129 51.6198 7.75111 51.1777 7.96602C50.9189 8.09147 50.6774 8.20057 50.6774 8.20057C46.2583 10.1817 46.9182 9.02093 46.9182 9.02093C47.1781 8.59329 48.635 8.0402 48.635 8.0402" fill="white"/>
</svg>
