<svg width="28" height="28" viewBox="0 0 28 28" fill="none" xmlns="http://www.w3.org/2000/svg">
<path d="M11.1671 24.0468C11.1671 19.8337 8.16641 16.8329 3.95324 16.8329C3.34892 16.774 3.34892 15.8927 3.95324 15.8337C8.16641 15.8337 11.1671 12.8331 11.1671 8.6199C11.226 8.01559 12.1073 8.01559 12.1663 8.6199C12.1663 12.8331 15.167 15.8337 19.3801 15.8337C19.9844 15.8927 19.9844 16.774 19.3801 16.8329C15.167 16.8329 12.1663 19.8337 12.1663 24.0468C12.1073 24.6511 11.226 24.6511 11.1671 24.0468Z" stroke="#8D8D86" stroke-linejoin="round"/>
<path d="M18.9003 12.5971C18.9003 9.93903 18.0609 9.09974 15.4028 9.09974C15.0881 9.09974 15.0881 8.40027 15.4028 8.40027C18.0609 8.40027 18.9003 7.5608 18.9003 4.90288C18.9003 4.58803 19.5998 4.58783 19.5998 4.90288C19.5998 7.5608 20.4392 8.40027 23.0973 8.40027C23.4121 8.40027 23.4121 9.09974 23.0973 9.09974C20.4392 9.09974 19.5998 9.93903 19.5998 12.5971C19.5998 12.9121 18.9003 12.9121 18.9003 12.5971Z" stroke="#8D8D86" stroke-width="0.9" stroke-linejoin="round"/>
</svg>
