<svg width="22" height="23" viewBox="0 0 22 23" fill="none" xmlns="http://www.w3.org/2000/svg">
<path d="M16.8333 5.33333H19.1667C20.4553 5.33333 21.5 6.378 21.5 7.66666V14.6667C21.5 15.9553 20.4553 17 19.1667 17H16.8333V21.6667L12.1667 17H7.5C6.85567 17 6.27233 16.7388 5.85008 16.3166M5.85008 16.3166L9.83333 12.3333H14.5C15.7887 12.3333 16.8333 11.2887 16.8333 10V3C16.8333 1.71133 15.7887 0.666664 14.5 0.666664H2.83333C1.54467 0.666664 0.5 1.71133 0.5 3V10C0.5 11.2887 1.54467 12.3333 2.83333 12.3333H5.16667V17L5.85008 16.3166Z" stroke="#8D8D86" stroke-linecap="round" stroke-linejoin="round"/>
</svg>
