<svg width="84" height="42" viewBox="0 0 84 42" fill="none" xmlns="http://www.w3.org/2000/svg">
<mask id="mask0_300_62" style="mask-type:luminance" maskUnits="userSpaceOnUse" x="0" y="0" width="84" height="42">
<path d="M84 0H0V42H84V0Z" fill="white"/>
</mask>
<g mask="url(#mask0_300_62)">
<path fill-rule="evenodd" clip-rule="evenodd" d="M65.6087 9.98327C67.2967 10.1771 69.2098 10.274 71.2998 10.1287C73.02 10.0156 74.6437 9.74096 76.1388 9.40173C77.9233 8.98173 78.5181 6.72019 77.1677 5.47634C76.9909 5.3148 76.814 5.15327 76.6372 5.00788C67.8433 -2.51981 54.6444 -1.4375 47.1688 7.39865L45.0788 9.85404L40.8669 14.8294L29.4525 28.3179L21.1892 38.1233C19.8548 39.6902 21.1088 42.1133 23.1505 41.8871C28.2789 41.3379 33.2144 38.8664 36.8316 34.6179L39.9505 30.9187L43.1175 27.171L54.5318 13.6825C57.3291 10.3548 61.6538 9.0625 65.6087 9.98327ZM36.8156 7.3825C36.0921 6.5425 35.3043 5.7348 34.4361 4.99173C25.6423 -2.51981 12.4435 -1.4375 4.98393 7.39865C-2.49166 16.2348 -1.41453 29.4971 7.37934 36.9925C8.24747 37.7356 9.16384 38.3979 10.0963 38.9633C11.9934 40.1264 14.4692 39.7064 15.916 37.994L16.2697 37.574C18.0864 35.4256 17.5558 32.1464 15.1444 30.6925C14.6138 30.3694 14.1155 30.014 13.6332 29.594C8.85838 25.5071 8.31178 18.2702 12.4757 13.5048C16.4626 8.94942 23.4077 8.38403 28.0538 12.2287C28.5844 12.6648 29.0667 13.1494 29.5007 13.6664C31.3335 15.831 34.6452 15.8633 36.478 13.6987L36.8316 13.2787C38.2464 11.5987 38.2625 9.07865 36.8156 7.3825ZM77.8269 12.471C80.3348 11.954 82.8106 13.521 83.4054 16.0248C84.9327 22.341 83.518 29.271 79.0165 34.5856C71.5409 43.4379 58.3581 44.5202 49.5643 37.0087C48.7604 36.3302 48.0208 35.5871 47.3456 34.8117C45.8023 33.0348 45.7701 30.3856 47.2813 28.5925L47.41 28.4471C49.291 26.2179 52.6992 26.2502 54.6123 28.4471C54.966 28.8671 55.3678 29.2548 55.8019 29.6264C60.6731 33.794 68.0362 33.051 72.0071 27.914C74.1453 25.1356 74.8045 21.5817 74.0328 18.351C73.4058 15.7017 75.0456 13.0525 77.6982 12.5033C77.7465 12.5033 77.7786 12.4871 77.8269 12.471Z" fill="#47B6AA"/>
</g>
</svg>
