<svg width="177" height="52" viewBox="0 0 177 52" fill="none" xmlns="http://www.w3.org/2000/svg">
<g clip-path="url(#clip0_7_29592)">
<path d="M51.939 25.9994C51.939 40.3583 40.3117 51.9994 25.9698 51.9994C21.937 51.9994 18.1171 51.0788 14.7124 49.4356L18.875 46.101C21.0945 46.8855 23.4815 47.3133 25.9698 47.3133C37.7269 47.3133 47.2585 37.7704 47.2585 25.9994C47.2585 21.6655 45.9661 17.634 43.7466 14.2691L47.4155 11.332C50.2691 15.5071 51.939 20.5575 51.939 25.9994Z" fill="black"/>
<path d="M41.3025 5.01231L37.4842 8.07034C34.1655 5.92836 30.2128 4.6858 25.9701 4.6858C14.213 4.6858 4.68141 14.2287 4.68141 25.9998C4.68141 31.9374 7.10622 37.3082 11.0197 41.1735L7.34477 44.1166C2.79865 39.4351 0.000915527 33.0455 0.000915527 25.9998C0.000915527 11.6408 11.6282 -0.000244141 25.9701 -0.000244141C31.706 -0.000244141 37.0055 1.86057 41.3025 5.01231Z" fill="black"/>
<path d="M24.3844 27.2091L15.0989 34.4649H19.3959L15.0068 37.9809C11.7682 35.0121 9.73901 30.7432 9.73901 25.9998C9.73901 17.0252 17.0059 9.74976 25.9698 9.74976C28.5833 9.74976 31.0534 10.368 33.2412 11.4685L13.5891 27.2091H24.3844Z" fill="#039F2C"/>
<path d="M52.4368 2.92651V7.31023L47.4151 11.3327L43.7461 14.2698L39.7738 17.4517C41.3123 19.9353 42.2001 22.8634 42.2001 26C42.2001 34.9745 34.9332 42.25 25.9693 42.25C25.2521 42.25 24.547 42.2031 23.854 42.1124L18.8746 46.1016L14.712 49.4363C13.6022 48.9012 12.5363 48.2905 11.5217 47.6072L15.3974 44.5038L19.7533 41.0135L34.3429 29.3256H30.0459L39.3314 22.0698H28.536L37.6766 14.749L41.6399 11.5745L45.3028 8.64047L52.4368 2.92651Z" fill="#039F2C"/>
</g>
<path d="M175.115 20.2144C175.237 20.2144 175.342 20.2588 175.431 20.3477C175.52 20.4366 175.564 20.5422 175.564 20.6644V31.4331C175.564 31.5553 175.52 31.6609 175.431 31.7498C175.342 31.8387 175.237 31.8832 175.115 31.8832H172.434C172.168 31.8832 171.946 31.7665 171.768 31.5331L168.138 26.8989V31.4331C168.138 31.5553 168.094 31.6609 168.005 31.7498C167.916 31.8387 167.811 31.8832 167.689 31.8832H164.592C164.47 31.8832 164.364 31.8387 164.275 31.7498C164.187 31.6609 164.142 31.5553 164.142 31.4331V20.6644C164.142 20.5422 164.187 20.4366 164.275 20.3477C164.364 20.2588 164.47 20.2144 164.592 20.2144H167.289C167.556 20.2144 167.772 20.3255 167.938 20.5478L171.568 25.5653V20.6644C171.568 20.5422 171.613 20.4366 171.701 20.3477C171.79 20.2588 171.896 20.2144 172.018 20.2144H175.115Z" fill="black"/>
<path d="M161.951 27.0658C161.951 28.7661 161.385 30.0219 160.253 30.8332C159.132 31.6444 157.633 32.0501 155.757 32.0501C153.881 32.0501 152.377 31.6444 151.245 30.8332C150.124 30.0219 149.563 28.755 149.563 27.0325V25.0654C149.563 23.9319 149.83 22.9928 150.363 22.2483C150.906 21.4926 151.645 20.9369 152.577 20.5813C153.509 20.2257 154.569 20.0479 155.757 20.0479C156.945 20.0479 157.999 20.2257 158.921 20.5813C159.853 20.9369 160.591 21.487 161.135 22.2316C161.679 22.9762 161.951 23.9097 161.951 25.0321V27.0658ZM154.059 27.3825C154.059 27.8382 154.209 28.1882 154.508 28.4327C154.819 28.6772 155.235 28.7995 155.757 28.7995C156.279 28.7995 156.69 28.6772 156.989 28.4327C157.3 28.1771 157.455 27.8215 157.455 27.3659V24.732C157.455 24.2764 157.3 23.9263 156.989 23.6819C156.69 23.4263 156.279 23.2985 155.757 23.2985C155.235 23.2985 154.819 23.4207 154.508 23.6652C154.209 23.9097 154.059 24.2597 154.059 24.7154V27.3825Z" fill="black"/>
<path d="M143.876 28.4659H146.889C147.011 28.4659 147.117 28.5103 147.206 28.5992C147.294 28.6881 147.339 28.7937 147.339 28.916V31.4331C147.339 31.5553 147.294 31.6609 147.206 31.7498C147.117 31.8387 147.011 31.8832 146.889 31.8832H136.333C136.211 31.8832 136.106 31.8387 136.017 31.7498C135.928 31.6609 135.884 31.5553 135.884 31.4331V28.916C135.884 28.7937 135.928 28.6881 136.017 28.5992C136.106 28.5103 136.211 28.4659 136.333 28.4659H139.38V23.6317H136.333C136.211 23.6317 136.106 23.5872 136.017 23.4983C135.928 23.4094 135.884 23.3038 135.884 23.1816V20.6644C135.884 20.5422 135.928 20.4366 136.017 20.3477C136.106 20.2588 136.211 20.2144 136.333 20.2144H146.889C147.011 20.2144 147.117 20.2588 147.206 20.3477C147.294 20.4366 147.339 20.5422 147.339 20.6644V23.1816C147.339 23.3038 147.294 23.4094 147.206 23.4983C147.117 23.5872 147.011 23.6317 146.889 23.6317H143.876V28.4659Z" fill="black"/>
<path d="M133.209 20.2144C133.332 20.2144 133.437 20.2588 133.526 20.3477C133.615 20.4366 133.659 20.5422 133.659 20.6644V23.3483C133.659 23.4705 133.615 23.5761 133.526 23.665C133.437 23.7539 133.332 23.7984 133.209 23.7984H129.63V31.4331C129.63 31.5553 129.585 31.6609 129.496 31.7498C129.408 31.8387 129.302 31.8832 129.18 31.8832H125.75C125.628 31.8832 125.523 31.8387 125.434 31.7498C125.345 31.6609 125.301 31.5553 125.301 31.4331V23.7984H121.721C121.599 23.7984 121.493 23.7539 121.405 23.665C121.316 23.5761 121.271 23.4705 121.271 23.3483V20.6644C121.271 20.5422 121.316 20.4366 121.405 20.3477C121.493 20.2588 121.599 20.2144 121.721 20.2144H133.209Z" fill="black"/>
<path d="M119.513 27.0658C119.513 28.7661 118.947 30.0219 117.815 30.8332C116.694 31.6444 115.195 32.0501 113.319 32.0501C111.443 32.0501 109.939 31.6444 108.807 30.8332C107.686 30.0219 107.125 28.755 107.125 27.0325V25.0654C107.125 23.9319 107.392 22.9928 107.925 22.2483C108.468 21.4926 109.207 20.9369 110.139 20.5813C111.071 20.2257 112.131 20.0479 113.319 20.0479C114.507 20.0479 115.561 20.2257 116.483 20.5813C117.415 20.9369 118.153 21.487 118.697 22.2316C119.241 22.9762 119.513 23.9097 119.513 25.0321V27.0658ZM111.621 27.3825C111.621 27.8382 111.771 28.1882 112.07 28.4327C112.381 28.6772 112.797 28.7995 113.319 28.7995C113.841 28.7995 114.252 28.6772 114.551 28.4327C114.862 28.1771 115.017 27.8215 115.017 27.3659V24.732C115.017 24.2764 114.862 23.9263 114.551 23.6819C114.252 23.4263 113.841 23.2985 113.319 23.2985C112.797 23.2985 112.381 23.4207 112.07 23.6652C111.771 23.9097 111.621 24.2597 111.621 24.7154V27.3825Z" fill="black"/>
<path d="M101.354 20.6644C101.521 20.3644 101.759 20.2144 102.07 20.2144H105.117C105.239 20.2144 105.345 20.2588 105.434 20.3477C105.522 20.4366 105.567 20.5422 105.567 20.6644V31.4331C105.567 31.5553 105.522 31.6609 105.434 31.7498C105.345 31.8387 105.239 31.8832 105.117 31.8832H102.104C101.981 31.8832 101.876 31.8387 101.787 31.7498C101.698 31.6609 101.654 31.5553 101.654 31.4331V26.2655L100.439 28.6659C100.405 28.7437 100.328 28.8326 100.205 28.9326C100.083 29.0326 99.9279 29.0827 99.7392 29.0827H98.607C98.4183 29.0827 98.2629 29.0326 98.1408 28.9326C98.0187 28.8326 97.941 28.7437 97.9077 28.6659L96.6923 26.2655V31.4331C96.6923 31.5553 96.6479 31.6609 96.5591 31.7498C96.4703 31.8387 96.3648 31.8832 96.2427 31.8832H93.2291C93.107 31.8832 93.0015 31.8387 92.9127 31.7498C92.8239 31.6609 92.7795 31.5553 92.7795 31.4331V20.6644C92.7795 20.5422 92.8239 20.4366 92.9127 20.3477C93.0015 20.2588 93.107 20.2144 93.2291 20.2144H96.276C96.5868 20.2144 96.8255 20.3644 96.992 20.6644L99.1731 24.6652L101.354 20.6644Z" fill="black"/>
<path d="M88.224 24.7153C88.3461 24.7153 88.4515 24.7598 88.5403 24.8487C88.6291 24.9376 88.6735 25.0432 88.6735 25.1654V27.5325C88.6735 27.6548 88.6291 27.7603 88.5403 27.8492C88.4515 27.9381 88.3461 27.9826 88.224 27.9826H81.847C81.7249 27.9826 81.6195 27.9381 81.5307 27.8492C81.4419 27.7603 81.3975 27.6548 81.3975 27.5325V25.1654C81.3975 25.0432 81.4419 24.9376 81.5307 24.8487C81.6195 24.7598 81.7249 24.7153 81.847 24.7153H88.224Z" fill="black"/>
<path d="M76.2757 28.6326C76.3978 28.6326 76.5033 28.677 76.5921 28.7659C76.6809 28.8548 76.7253 28.9604 76.7253 29.0827V31.4331C76.7253 31.5553 76.6809 31.6609 76.5921 31.7498C76.5033 31.8387 76.3978 31.8832 76.2757 31.8832H65.7529C65.6308 31.8832 65.5253 31.8387 65.4365 31.7498C65.3477 31.6609 65.3033 31.5553 65.3033 31.4331V20.6644C65.3033 20.5422 65.3477 20.4366 65.4365 20.3477C65.5253 20.2588 65.6308 20.2144 65.7529 20.2144H76.1092C76.2313 20.2144 76.3368 20.2588 76.4256 20.3477C76.5144 20.4366 76.5588 20.5422 76.5588 20.6644V23.0149C76.5588 23.1371 76.5144 23.2427 76.4256 23.3316C76.3368 23.4205 76.2313 23.465 76.1092 23.465H69.6323V24.5151H75.1935C75.3156 24.5151 75.421 24.5596 75.5098 24.6485C75.5986 24.7374 75.643 24.843 75.643 24.9652V27.1323C75.643 27.2545 75.5986 27.3601 75.5098 27.449C75.421 27.5379 75.3156 27.5824 75.1935 27.5824H69.6323V28.6326H76.2757Z" fill="black"/>
<defs>
<clipPath id="clip0_7_29592">
<rect width="52.4367" height="52" fill="white"/>
</clipPath>
</defs>
</svg>
