<svg width="178" height="52" viewBox="0 0 178 52" fill="none" xmlns="http://www.w3.org/2000/svg">
<g clip-path="url(#clip0_7_40870)">
<path d="M52.439 25.9994C52.439 40.3583 40.8117 51.9994 26.4698 51.9994C22.437 51.9994 18.6171 51.0788 15.2124 49.4356L19.375 46.101C21.5945 46.8855 23.9815 47.3133 26.4698 47.3133C38.2269 47.3133 47.7585 37.7704 47.7585 25.9994C47.7585 21.6655 46.4661 17.634 44.2466 14.2691L47.9155 11.332C50.7691 15.5071 52.439 20.5575 52.439 25.9994Z" fill="white"/>
<path d="M41.8025 5.01256L37.9841 8.07058C34.6655 5.9286 30.7127 4.68605 26.4701 4.68605C14.713 4.68605 5.18135 14.229 5.18135 26C5.18135 31.9377 7.60615 37.3085 11.5197 41.1737L7.84471 44.1169C3.29858 39.4353 0.500854 33.0457 0.500854 26C0.500854 11.641 12.1281 0 26.4701 0C32.206 0 37.5055 1.86081 41.8025 5.01256Z" fill="white"/>
<path d="M24.8844 27.2093L15.5989 34.4651H19.8959L15.5068 37.9812C12.2682 35.0123 10.239 30.7435 10.239 26C10.239 17.0255 17.5059 9.75 26.4698 9.75C29.0833 9.75 31.5534 10.3683 33.7412 11.4687L14.0891 27.2093H24.8844Z" fill="white"/>
<path d="M52.9367 2.92578V7.3095L47.915 11.3319L44.2461 14.269L40.2737 17.451C41.8122 19.9346 42.7 22.8626 42.7 25.9993C42.7 34.9738 35.4332 42.2493 26.4693 42.2493C25.7521 42.2493 25.047 42.2024 24.354 42.1117L19.3745 46.1009L15.2119 49.4355C14.1022 48.9004 13.0362 48.2897 12.0216 47.6065L15.8974 44.5031L20.2532 41.0128L34.8428 29.3248H30.5458L39.8313 22.069H29.036L38.1765 14.7482L42.1399 11.5738L45.8027 8.63973L52.9367 2.92578Z" fill="white"/>
</g>
<path d="M175.615 20.2168C175.737 20.2168 175.842 20.2612 175.931 20.3502C176.02 20.4391 176.064 20.5446 176.064 20.6669V31.4355C176.064 31.5578 176.02 31.6634 175.931 31.7523C175.842 31.8412 175.737 31.8856 175.615 31.8856H172.934C172.668 31.8856 172.446 31.7689 172.268 31.5356L168.638 26.9014V31.4355C168.638 31.5578 168.594 31.6634 168.505 31.7523C168.416 31.8412 168.311 31.8856 168.189 31.8856H165.092C164.97 31.8856 164.864 31.8412 164.776 31.7523C164.687 31.6634 164.642 31.5578 164.642 31.4355V20.6669C164.642 20.5446 164.687 20.4391 164.776 20.3502C164.864 20.2612 164.97 20.2168 165.092 20.2168H167.789C168.056 20.2168 168.272 20.3279 168.439 20.5502L172.068 25.5678V20.6669C172.068 20.5446 172.113 20.4391 172.201 20.3502C172.29 20.2612 172.396 20.2168 172.518 20.2168H175.615Z" fill="white"/>
<path d="M162.451 27.0668C162.451 28.7671 161.885 30.0229 160.753 30.8341C159.632 31.6454 158.133 32.051 156.257 32.051C154.381 32.051 152.877 31.6454 151.745 30.8341C150.624 30.0229 150.063 28.756 150.063 27.0334V25.0664C150.063 23.9329 150.33 22.9938 150.863 22.2492C151.407 21.4935 152.145 20.9379 153.077 20.5823C154.01 20.2266 155.07 20.0488 156.257 20.0488C157.445 20.0488 158.499 20.2266 159.421 20.5823C160.353 20.9379 161.091 21.488 161.635 22.2326C162.179 22.9771 162.451 23.9107 162.451 25.0331V27.0668ZM154.559 27.3835C154.559 27.8392 154.709 28.1892 155.009 28.4337C155.319 28.6782 155.736 28.8004 156.257 28.8004C156.779 28.8004 157.19 28.6782 157.489 28.4337C157.8 28.1781 157.956 27.8225 157.956 27.3668V24.733C157.956 24.2774 157.8 23.9273 157.489 23.6828C157.19 23.4272 156.779 23.2994 156.257 23.2994C155.736 23.2994 155.319 23.4217 155.009 23.6662C154.709 23.9107 154.559 24.2607 154.559 24.7164V27.3835Z" fill="white"/>
<path d="M144.376 28.4683H147.389C147.511 28.4683 147.617 28.5128 147.706 28.6017C147.794 28.6906 147.839 28.7962 147.839 28.9184V31.4355C147.839 31.5578 147.794 31.6634 147.706 31.7523C147.617 31.8412 147.511 31.8856 147.389 31.8856H136.833C136.711 31.8856 136.606 31.8412 136.517 31.7523C136.428 31.6634 136.384 31.5578 136.384 31.4355V28.9184C136.384 28.7962 136.428 28.6906 136.517 28.6017C136.606 28.5128 136.711 28.4683 136.833 28.4683H139.88V23.6341H136.833C136.711 23.6341 136.606 23.5896 136.517 23.5007C136.428 23.4118 136.384 23.3063 136.384 23.184V20.6669C136.384 20.5446 136.428 20.4391 136.517 20.3502C136.606 20.2612 136.711 20.2168 136.833 20.2168H147.389C147.511 20.2168 147.617 20.2612 147.706 20.3502C147.794 20.4391 147.839 20.5446 147.839 20.6669V23.184C147.839 23.3063 147.794 23.4118 147.706 23.5007C147.617 23.5896 147.511 23.6341 147.389 23.6341H144.376V28.4683Z" fill="white"/>
<path d="M133.71 20.2168C133.832 20.2168 133.937 20.2612 134.026 20.3502C134.115 20.4391 134.159 20.5446 134.159 20.6669V23.3507C134.159 23.473 134.115 23.5785 134.026 23.6674C133.937 23.7563 133.832 23.8008 133.71 23.8008H130.13V31.4355C130.13 31.5578 130.085 31.6634 129.997 31.7523C129.908 31.8412 129.802 31.8856 129.68 31.8856H126.25C126.128 31.8856 126.023 31.8412 125.934 31.7523C125.845 31.6634 125.801 31.5578 125.801 31.4355V23.8008H122.221C122.099 23.8008 121.993 23.7563 121.905 23.6674C121.816 23.5785 121.771 23.473 121.771 23.3507V20.6669C121.771 20.5446 121.816 20.4391 121.905 20.3502C121.993 20.2612 122.099 20.2168 122.221 20.2168H133.71Z" fill="white"/>
<path d="M120.013 27.0668C120.013 28.7671 119.447 30.0229 118.315 30.8341C117.194 31.6454 115.695 32.051 113.819 32.051C111.943 32.051 110.439 31.6454 109.307 30.8341C108.186 30.0229 107.625 28.756 107.625 27.0334V25.0664C107.625 23.9329 107.892 22.9938 108.425 22.2492C108.969 21.4935 109.707 20.9379 110.639 20.5823C111.572 20.2266 112.632 20.0488 113.819 20.0488C115.007 20.0488 116.061 20.2266 116.983 20.5823C117.915 20.9379 118.653 21.488 119.197 22.2326C119.741 22.9771 120.013 23.9107 120.013 25.0331V27.0668ZM112.121 27.3835C112.121 27.8392 112.271 28.1892 112.571 28.4337C112.881 28.6782 113.298 28.8004 113.819 28.8004C114.341 28.8004 114.752 28.6782 115.051 28.4337C115.362 28.1781 115.518 27.8225 115.518 27.3668V24.733C115.518 24.2774 115.362 23.9273 115.051 23.6828C114.752 23.4272 114.341 23.2994 113.819 23.2994C113.298 23.2994 112.881 23.4217 112.571 23.6662C112.271 23.9107 112.121 24.2607 112.121 24.7164V27.3835Z" fill="white"/>
<path d="M101.854 20.6669C102.021 20.3668 102.26 20.2168 102.57 20.2168H105.617C105.739 20.2168 105.845 20.2612 105.934 20.3502C106.022 20.4391 106.067 20.5446 106.067 20.6669V31.4355C106.067 31.5578 106.022 31.6634 105.934 31.7523C105.845 31.8412 105.739 31.8856 105.617 31.8856H102.604C102.482 31.8856 102.376 31.8412 102.287 31.7523C102.199 31.6634 102.154 31.5578 102.154 31.4355V26.2679L100.939 28.6684C100.905 28.7461 100.828 28.8351 100.706 28.9351C100.583 29.0351 100.428 29.0851 100.239 29.0851H99.1072C98.9185 29.0851 98.7631 29.0351 98.641 28.9351C98.5189 28.8351 98.4412 28.7461 98.4079 28.6684L97.1924 26.2679V31.4355C97.1924 31.5578 97.148 31.6634 97.0592 31.7523C96.9704 31.8412 96.865 31.8856 96.7429 31.8856H93.7292C93.6071 31.8856 93.5017 31.8412 93.4129 31.7523C93.3241 31.6634 93.2797 31.5578 93.2797 31.4355V20.6669C93.2797 20.5446 93.3241 20.4391 93.4129 20.3502C93.5017 20.2612 93.6071 20.2168 93.7292 20.2168H96.7762C97.087 20.2168 97.3256 20.3668 97.4921 20.6669L99.6733 24.6676L101.854 20.6669Z" fill="white"/>
<path d="M88.7241 24.7168C88.8462 24.7168 88.9516 24.7612 89.0404 24.8502C89.1292 24.9391 89.1736 25.0446 89.1736 25.1669V27.534C89.1736 27.6562 89.1292 27.7618 89.0404 27.8507C88.9516 27.9396 88.8462 27.9841 88.7241 27.9841H82.3471C82.225 27.9841 82.1196 27.9396 82.0308 27.8507C81.942 27.7618 81.8976 27.6562 81.8976 27.534V25.1669C81.8976 25.0446 81.942 24.9391 82.0308 24.8502C82.1196 24.7612 82.225 24.7168 82.3471 24.7168H88.7241Z" fill="white"/>
<path d="M76.7758 28.635C76.8979 28.635 77.0034 28.6795 77.0922 28.7684C77.181 28.8573 77.2254 28.9629 77.2254 29.0851V31.4355C77.2254 31.5578 77.181 31.6634 77.0922 31.7523C77.0034 31.8412 76.8979 31.8856 76.7758 31.8856H66.253C66.1309 31.8856 66.0255 31.8412 65.9367 31.7523C65.8479 31.6634 65.8035 31.5578 65.8035 31.4355V20.6669C65.8035 20.5446 65.8479 20.4391 65.9367 20.3502C66.0255 20.2612 66.1309 20.2168 66.253 20.2168H76.6093C76.7314 20.2168 76.8369 20.2612 76.9257 20.3502C77.0145 20.4391 77.0589 20.5446 77.0589 20.6669V23.0173C77.0589 23.1396 77.0145 23.2451 76.9257 23.334C76.8369 23.4229 76.7314 23.4674 76.6093 23.4674H70.1325V24.5176H75.6936C75.8157 24.5176 75.9211 24.562 76.0099 24.6509C76.0987 24.7399 76.1431 24.8454 76.1431 24.9677V27.1347C76.1431 27.257 76.0987 27.3626 76.0099 27.4515C75.9211 27.5404 75.8157 27.5848 75.6936 27.5848H70.1325V28.635H76.7758Z" fill="white"/>
<defs>
<clipPath id="clip0_7_40870">
<rect width="52.4367" height="52" fill="white" transform="translate(0.5)"/>
</clipPath>
</defs>
</svg>
