<svg width="50" height="50" viewBox="0 0 50 50" fill="none" xmlns="http://www.w3.org/2000/svg">
<circle cx="25" cy="25" r="25" fill="black"/>
<path fill-rule="evenodd" clip-rule="evenodd" d="M32.4188 29.2971L30.0343 35.2798C29.8832 35.6591 29.3642 35.7664 29.0562 35.4822L21.7334 28.7288C20.469 27.5615 19.876 25.8994 20.1378 24.2555L20.1389 24.2495L28.9846 32.3619C29.0822 32.1168 29.1297 31.8626 29.1297 31.6101C29.1297 31.0417 28.8888 30.4846 28.439 30.072L18.6998 21.1045C17.4322 19.937 16.8374 18.2728 17.0995 16.6266V16.6246L30.3966 28.8191C30.4942 28.5741 30.5419 28.3194 30.5419 28.067C30.5419 27.4987 30.3012 26.9418 29.8513 26.5294L15.6634 13.4796C14.3943 12.3121 13.7984 10.6473 14.0609 9L31.3645 24.8689C32.6198 26.0205 33.0332 27.7558 32.4188 29.2971ZM28.149 40.0123L27.3568 42C25.5511 40.4719 24.4946 38.9796 25.4542 37.5846L26.5154 38.558C26.6001 38.3461 26.6409 38.1263 26.6409 37.9081C26.6409 37.4172 26.433 36.9359 26.0447 36.5795L24.1479 34.8219C23.3181 34.053 22.9544 32.9471 23.1785 31.8746L27.0668 35.4516C28.3572 36.639 28.7814 38.4253 28.149 40.0123ZM35.343 21.9094C35.7335 21.7168 36 21.3329 36 20.891C36 20.7587 35.9761 20.6319 35.9323 20.5135C35.8511 20.416 35.7866 20.3057 35.7422 20.1866C35.7067 20.0906 35.6843 19.9891 35.6771 19.8835C35.6754 19.8588 35.6745 19.8338 35.6745 19.8088C35.6745 19.7996 35.6748 19.7906 35.675 19.7816V19.7736V19.7712C35.6807 19.6176 35.6217 19.4684 35.5046 19.3612L34.4282 18.3736L32.099 16.2375C32.0495 16.3935 32.0227 16.5589 32.0227 16.7298C32.0227 17.2081 32.2306 17.6408 32.5665 17.9531C32.3652 17.9274 32.1594 17.9139 31.9504 17.9139C31.1764 17.9139 30.4478 18.0976 29.8125 18.421C29.4505 18.6047 29.119 18.8341 28.8261 19.1003C28.7495 18.1625 28.3857 17.3005 27.8165 16.5904L26.7015 15.5677L20.0436 9.46178C19.7811 11.109 20.377 12.7742 21.6461 13.9414L22.5637 14.7855L28.1329 19.9082L32.5487 23.9701C32.5119 23.7721 32.4928 23.5684 32.4928 23.3607C32.4928 22.6631 32.7098 22.0132 33.0836 21.4662L33.085 21.4641C33.0905 21.455 33.0959 21.4462 33.1016 21.4374C33.1298 21.3941 33.1609 21.3525 33.195 21.3132C33.2926 21.1996 33.4136 21.1042 33.5507 21.0331C33.7247 20.9424 33.925 20.891 34.138 20.891C34.7652 20.891 35.2811 21.3373 35.343 21.9094Z" fill="url(#paint0_linear_171_9)"/>
<defs>
<linearGradient id="paint0_linear_171_9" x1="11.5368" y1="23.4364" x2="96.313" y2="110.281" gradientUnits="userSpaceOnUse">
<stop stop-color="#D89223"/>
<stop offset="1" stop-color="#EFBE72"/>
</linearGradient>
</defs>
</svg>
