<svg width="105" height="24" viewBox="0 0 105 24" fill="none" xmlns="http://www.w3.org/2000/svg">
<path fill-rule="evenodd" clip-rule="evenodd" d="M13.3955 14.7617L11.6613 19.1127C11.5514 19.3885 11.174 19.4666 10.95 19.2599L5.62427 14.3484C4.70471 13.4995 4.27346 12.2907 4.46383 11.0952L4.46463 11.0908L10.8979 16.9906C10.9689 16.8124 11.0034 16.6275 11.0034 16.4439C11.0034 16.0305 10.8282 15.6253 10.5011 15.3253L3.41805 8.80359C2.49611 7.9545 2.06354 6.74422 2.25419 5.547V5.54551L11.9248 14.4141C11.9958 14.2359 12.0305 14.0507 12.0305 13.8671C12.0305 13.4538 11.8554 13.0488 11.5282 12.7489L1.20972 3.25831C0.286728 2.40924 -0.146628 1.19847 0.0442804 0.000492081L12.6287 11.5413C13.5417 12.3788 13.8423 13.6408 13.3955 14.7617ZM10.2902 22.5544L9.71404 24C8.40082 22.8887 7.63246 21.8034 8.33036 20.7889L9.10213 21.4968C9.16368 21.3427 9.19339 21.1828 9.19339 21.0241C9.19339 20.6671 9.04218 20.3171 8.75976 20.0579L7.38029 18.7797C6.77679 18.2205 6.51226 17.4162 6.67528 16.6362L9.50315 19.2376C10.4416 20.1012 10.7501 21.4003 10.2902 22.5544ZM15.5222 9.38892C15.8062 9.24892 16 8.96967 16 8.64834C16 8.55213 15.9826 8.45987 15.9508 8.37375C15.8917 8.30289 15.8448 8.22268 15.8125 8.13607C15.7867 8.0662 15.7704 7.99239 15.7652 7.91562C15.7639 7.89766 15.7633 7.87945 15.7633 7.86124C15.7633 7.85458 15.7635 7.84806 15.7636 7.84146C15.7636 7.83954 15.7636 7.8376 15.7636 7.83565V7.83393C15.7678 7.72224 15.7249 7.61373 15.6397 7.53573L14.8569 6.81754L13.1629 5.26404C13.1269 5.37747 13.1074 5.49777 13.1074 5.62203C13.1074 5.96992 13.2586 6.28461 13.5029 6.51171C13.3565 6.49302 13.2068 6.48316 13.0548 6.48316C12.4919 6.48316 11.962 6.61677 11.5 6.85199C11.2367 6.98559 10.9956 7.1524 10.7826 7.34604C10.7269 6.664 10.4623 6.0371 10.0484 5.52066L9.23747 4.77687L4.39533 0.336328C4.20443 1.5343 4.63779 2.74531 5.56077 3.59416L6.22816 4.20802L10.2785 7.93359L13.49 10.8876C13.4632 10.7436 13.4493 10.5955 13.4493 10.4444C13.4493 9.9371 13.6071 9.46444 13.879 9.0666C13.8792 9.0661 13.8795 9.06562 13.88 9.06513C13.884 9.05848 13.8879 9.05208 13.8921 9.04569C13.9126 9.01419 13.9352 8.98393 13.96 8.95539C14.031 8.87272 14.119 8.80333 14.2187 8.75167C14.3452 8.68573 14.4909 8.64834 14.6458 8.64834C15.102 8.64834 15.4772 8.97286 15.5222 9.38892Z" fill="url(#paint0_linear_90_745)"/>
<path opacity="0.6" d="M64.2783 22.0508C63.5783 22.0508 63.022 21.8289 62.6094 21.3852C62.2031 20.935 62 20.3068 62 19.5005C62 19.0131 62.0906 18.5786 62.2718 18.1972C62.4595 17.8099 62.7188 17.5067 63.0499 17.2878C63.3814 17.0629 63.7657 16.9504 64.2032 16.9504C64.6721 16.9504 65.0597 17.0535 65.3659 17.2596C65.6784 17.4597 65.9127 17.7315 66.069 18.0754C66.2254 18.4191 66.3036 18.7974 66.3036 19.21C66.3036 19.4286 66.2941 19.6412 66.2754 19.8474H62.8625C62.9187 20.3038 63.0781 20.66 63.3407 20.9163C63.6032 21.1726 63.9501 21.3006 64.3814 21.3006C64.6626 21.3006 64.9157 21.2727 65.1408 21.2163C65.3659 21.1539 65.5816 21.0757 65.7877 20.9819L65.9846 21.7039C65.7598 21.804 65.5064 21.8851 65.2252 21.9477C64.9439 22.0164 64.6282 22.0508 64.2783 22.0508ZM62.853 19.1631H65.5252C65.5252 18.6879 65.4066 18.3223 65.169 18.066C64.9314 17.8099 64.6032 17.6816 64.1845 17.6816C63.8221 17.6816 63.5219 17.8099 63.2845 18.066C63.0469 18.316 62.9032 18.6816 62.853 19.1631ZM69.2752 22.0508C68.8751 22.0508 68.5095 21.9477 68.1781 21.7413C67.8469 21.5352 67.5843 21.2445 67.3904 20.8694C67.1968 20.4883 67.0999 20.0413 67.0999 19.5287C67.0999 19.0348 67.1968 18.5943 67.3904 18.2067C67.5906 17.8191 67.8531 17.5129 68.1781 17.2878C68.5095 17.0629 68.8719 16.9504 69.2657 16.9504C69.5909 16.9504 69.8689 17.016 70.1003 17.1473C70.3378 17.2786 70.522 17.4128 70.6533 17.5503V15H71.4971V20.757C71.4971 20.9944 71.5535 21.1506 71.666 21.2257C71.7848 21.2944 71.9129 21.3288 72.0504 21.3288L71.8722 21.9852C71.2785 21.9852 70.9158 21.7476 70.7846 21.2727C70.6471 21.4663 70.4534 21.6445 70.2033 21.807C69.9595 21.9695 69.65 22.0508 69.2752 22.0508ZM69.4626 21.3006C69.694 21.3006 69.9126 21.2477 70.119 21.1414C70.3314 21.0288 70.5095 20.8851 70.6533 20.7101V18.2911C70.5345 18.1411 70.369 18.0036 70.1564 17.8785C69.944 17.7473 69.7094 17.6816 69.4534 17.6816C69.1531 17.6816 68.8906 17.763 68.6657 17.9254C68.4406 18.0879 68.2657 18.3068 68.1406 18.5818C68.0218 18.8506 67.9624 19.1568 67.9624 19.5005C67.9624 19.8444 68.0281 20.1538 68.1594 20.4289C68.2906 20.6977 68.4688 20.91 68.6939 21.0663C68.925 21.2225 69.1813 21.3006 69.4626 21.3006ZM74.7719 22.0508C74.4907 22.0508 74.2251 21.9914 73.9751 21.8726C73.725 21.7538 73.5218 21.5632 73.3656 21.3006C73.2094 21.0321 73.1313 20.6757 73.1313 20.232V17.0629H73.9751V20.1194C73.9751 20.5007 74.0564 20.7945 74.2189 21.0006C74.3814 21.2008 74.6189 21.3006 74.9314 21.3006C75.1877 21.3006 75.4345 21.2507 75.6721 21.1506C75.9159 21.0446 76.1316 20.9038 76.319 20.7288V17.0629H77.1628V20.6724C77.1628 20.9412 77.2192 21.1194 77.3318 21.207C77.4503 21.2881 77.5786 21.3288 77.7161 21.3288L77.5379 21.9852C76.9567 21.9852 76.5973 21.7538 76.4598 21.2914C76.2409 21.5165 75.9878 21.7007 75.7003 21.8444C75.4128 21.9819 75.1034 22.0508 74.7719 22.0508ZM80.7139 22.0508C80.2515 22.0508 79.8452 21.9445 79.4953 21.7321C79.1514 21.5132 78.8858 21.2133 78.6981 20.8319C78.5107 20.4443 78.4169 20.0006 78.4169 19.5005C78.4169 19.0318 78.5107 18.6035 78.6981 18.2159C78.8921 17.8286 79.1671 17.5221 79.5232 17.2973C79.8796 17.0659 80.2984 16.9504 80.7795 16.9504C81.0546 16.9504 81.2954 16.9753 81.5015 17.0252C81.7142 17.0754 81.9173 17.1473 82.111 17.2409L81.8579 17.9536C81.6827 17.866 81.514 17.8034 81.3516 17.766C81.1953 17.7223 81.0204 17.7003 80.8265 17.7003C80.389 17.7003 80.0201 17.8598 79.7201 18.1785C79.4264 18.491 79.2794 18.9255 79.2794 19.4818C79.2794 19.8194 79.342 20.1256 79.4671 20.4007C79.5921 20.6757 79.7638 20.8946 79.9827 21.057C80.2078 21.2195 80.4703 21.3006 80.7703 21.3006C81.0079 21.3006 81.2111 21.2757 81.3798 21.2257C81.5485 21.1696 81.7297 21.0912 81.9236 20.9914L82.1861 21.7039C81.9922 21.8102 81.7736 21.8946 81.5297 21.957C81.2922 22.0196 81.0204 22.0508 80.7139 22.0508ZM84.9419 22.0508C84.5356 22.0508 84.1667 21.9477 83.8353 21.7413C83.5041 21.5352 83.2385 21.2445 83.0384 20.8694C82.8447 20.4883 82.7479 20.0413 82.7479 19.5287C82.7479 19.041 82.8447 18.6035 83.0384 18.2159C83.2385 17.8286 83.5103 17.5221 83.8542 17.2973C84.2041 17.0659 84.6042 16.9504 85.0542 16.9504C85.3354 16.9504 85.5887 17.0003 85.8136 17.1004C86.0449 17.1942 86.2451 17.3128 86.4138 17.4565V17.0629H87.1825V20.757C87.1825 20.9944 87.2389 21.1506 87.3514 21.2257C87.47 21.2944 87.5983 21.3288 87.7358 21.3288L87.5576 21.9852C86.9576 21.9852 86.595 21.7413 86.47 21.2539C86.3262 21.4538 86.1293 21.6383 85.8792 21.807C85.6357 21.9695 85.3229 22.0508 84.9419 22.0508ZM85.1293 21.3006C85.3669 21.3006 85.5917 21.2445 85.8044 21.1319C86.0167 21.0131 86.1949 20.8664 86.3387 20.6914V18.0754C86.17 17.9566 85.9826 17.8628 85.7762 17.7942C85.5763 17.7191 85.3636 17.6816 85.1385 17.6816C84.8385 17.6816 84.573 17.7597 84.3416 17.916C84.1168 18.066 83.9386 18.2786 83.8073 18.5536C83.676 18.8224 83.6104 19.1381 83.6104 19.5005C83.6104 19.8506 83.676 20.1631 83.8073 20.4381C83.9386 20.7069 84.1198 20.9195 84.3511 21.0757C84.5822 21.2257 84.8418 21.3006 85.1293 21.3006ZM90.5691 22.0508C90.1002 22.0508 89.7283 21.8976 89.4533 21.5914C89.1845 21.2789 89.0503 20.8352 89.0503 20.2599V17.9724H88.2062V17.2409H89.069L89.2469 15.7033H89.894V17.2409H91.2442V17.9724H89.894V20.3255C89.894 20.6882 89.9689 20.9412 90.1189 21.085C90.2751 21.2287 90.4596 21.3006 90.6722 21.3006C90.8284 21.3006 90.9754 21.2757 91.1129 21.2257C91.2567 21.1758 91.388 21.1164 91.5065 21.0475L91.7411 21.7226C91.6161 21.7978 91.4474 21.8696 91.2347 21.9383C91.0221 22.0134 90.8002 22.0508 90.5691 22.0508ZM92.5891 21.9383V17.0629H93.4329V21.9383H92.5891ZM93.0112 16.2284C92.8487 16.2284 92.7079 16.169 92.5891 16.0502C92.4766 15.9314 92.4204 15.7939 92.4204 15.6376C92.4204 15.4565 92.4736 15.3127 92.5799 15.2064C92.686 15.1001 92.8297 15.0469 93.0112 15.0469C93.1736 15.0469 93.3111 15.1063 93.4237 15.2251C93.5425 15.3377 93.6019 15.4752 93.6019 15.6376C93.6019 15.8126 93.5487 15.9563 93.4424 16.0689C93.3361 16.1752 93.1923 16.2284 93.0112 16.2284ZM96.9865 22.0508C96.5238 22.0508 96.1083 21.9445 95.7394 21.7321C95.3706 21.5132 95.0801 21.2133 94.8674 20.8319C94.6613 20.4443 94.5582 20.0006 94.5582 19.5005C94.5582 18.9756 94.6643 18.5224 94.8769 18.1411C95.0893 17.7597 95.3801 17.466 95.7489 17.2596C96.1175 17.0535 96.5301 16.9504 96.9865 16.9504C97.4427 16.9504 97.8523 17.0535 98.2147 17.2596C98.5835 17.466 98.8743 17.7597 99.0867 18.1411C99.3055 18.5162 99.4148 18.9629 99.4148 19.4818C99.4148 20.0006 99.3085 20.4538 99.0961 20.8414C98.8835 21.2225 98.5928 21.5195 98.2241 21.7321C97.8615 21.9445 97.449 22.0508 96.9865 22.0508ZM96.9865 21.3006C97.4802 21.3006 97.8648 21.1351 98.1398 20.8037C98.4148 20.4663 98.5523 20.0318 98.5523 19.5005C98.5523 19.1755 98.4834 18.8785 98.3459 18.6098C98.2084 18.3347 98.021 18.1161 97.7834 17.9536C97.5521 17.7847 97.2865 17.7003 96.9865 17.7003C96.4926 17.7003 96.1083 17.8628 95.8333 18.188C95.5583 18.5129 95.4207 18.9442 95.4207 19.4818C95.4207 19.8069 95.4894 20.1099 95.6269 20.3912C95.7644 20.6662 95.9488 20.8881 96.1802 21.057C96.4178 21.2195 96.6866 21.3006 96.9865 21.3006ZM100.537 21.9383V17.0629H101.352V17.8785C101.527 17.616 101.749 17.3971 102.018 17.2222C102.293 17.041 102.618 16.9504 102.993 16.9504C103.543 16.9504 103.953 17.1158 104.222 17.4473C104.497 17.7784 104.634 18.2159 104.634 18.7598V21.9383H103.79V18.8536C103.79 18.5037 103.706 18.2224 103.537 18.0098C103.374 17.7972 103.146 17.6911 102.853 17.6911C102.565 17.6911 102.293 17.7942 102.037 18.0003C101.78 18.2005 101.562 18.4381 101.38 18.7131V21.9383H100.537Z" fill="white"/>
<path d="M19 20.4012V9.54291H21.1238L26.332 18.5708V9.54291H27.8489V20.4012H25.7589L20.5169 11.4353V20.4012H19ZM30.7157 20.4012V12.335H32.2327V20.4012H30.7157ZM31.4741 10.9545C31.1819 10.9545 30.9292 10.8562 30.7157 10.6598C30.5134 10.4633 30.4122 10.2358 30.4122 9.97724C30.4122 9.67734 30.5077 9.4395 30.6987 9.2637C30.8897 9.08789 31.1483 9 31.4741 9C31.7663 9 32.0135 9.09823 32.2157 9.29472C32.4293 9.48086 32.536 9.70838 32.536 9.97724C32.536 10.2668 32.4405 10.5046 32.2495 10.6908C32.0584 10.8666 31.8 10.9545 31.4741 10.9545ZM35.1486 24C34.8115 24 34.5136 23.9689 34.2552 23.9069C34.008 23.8449 33.8113 23.7725 33.6652 23.6898L34.0023 22.5263C34.1373 22.5987 34.3058 22.6608 34.508 22.7125C34.7103 22.7641 34.9351 22.79 35.1822 22.79C35.6542 22.79 36.0755 22.6503 36.4464 22.3712C36.8173 22.092 37.1712 21.5439 37.5083 20.727L37.8959 19.7962H37.0868L33.6652 12.7073L35.0136 12.1489L38.2836 18.8655L40.8287 12.2109L42.2276 12.7073L39.0084 20.8045C38.6824 21.6318 38.3285 22.2781 37.9465 22.7434C37.5645 23.2088 37.143 23.5347 36.6823 23.7207C36.2216 23.9069 35.7105 24 35.1486 24ZM46.777 20.5873C46.0466 20.5873 45.3837 20.4167 44.788 20.0754C44.1925 19.7342 43.715 19.2533 43.3554 18.6328C43.007 18.002 42.8328 17.2626 42.8328 16.4147C42.8328 15.608 43.007 14.8841 43.3554 14.243C43.715 13.6018 44.2038 13.0951 44.8218 12.7228C45.4511 12.3402 46.1702 12.1489 46.9793 12.1489C47.485 12.1489 47.94 12.2316 48.3445 12.3971C48.7603 12.5522 49.1199 12.7487 49.4232 12.9865V12.335H50.8054V18.4467C50.8054 18.8397 50.9065 19.0982 51.1087 19.2223C51.3222 19.336 51.5526 19.3929 51.7999 19.3929L51.4796 20.4788C50.4009 20.4788 49.7492 20.0754 49.5244 19.2688C49.266 19.5998 48.9119 19.9048 48.4625 20.184C48.0242 20.4529 47.4623 20.5873 46.777 20.5873ZM47.1141 19.3464C47.541 19.3464 47.9455 19.2533 48.3277 19.0672C48.7097 18.8707 49.0299 18.6277 49.2884 18.3381V14.0103C48.9849 13.8138 48.6478 13.6587 48.2771 13.545C47.9176 13.4209 47.5354 13.3588 47.1309 13.3588C46.5916 13.3588 46.1139 13.4881 45.6983 13.7466C45.2937 13.9948 44.9735 14.3464 44.7374 14.8014C44.5015 15.2461 44.3835 15.7683 44.3835 16.3681C44.3835 16.9472 44.5015 17.4643 44.7374 17.9193C44.9735 18.364 45.2993 18.7156 45.7151 18.9741C46.1309 19.2223 46.5971 19.3464 47.1141 19.3464ZM56.8932 20.5873C56.0505 20.5873 55.3819 20.334 54.8874 19.8273C54.4043 19.3102 54.1627 18.576 54.1627 17.6246V13.8397H52.6457V12.6298H54.1964L54.5166 10.0858H55.6796V12.6298H58.1069V13.8397H55.6796V17.7332C55.6796 18.3329 55.8145 18.7518 56.0841 18.9896C56.3651 19.2275 56.6966 19.3464 57.0786 19.3464C57.3596 19.3464 57.6237 19.305 57.8707 19.2223C58.1293 19.1396 58.3653 19.0413 58.5787 18.9276L59 20.0444C58.7754 20.1685 58.4719 20.2875 58.0899 20.4012C57.7079 20.5253 57.309 20.5873 56.8932 20.5873Z" fill="white"/>
<defs>
<linearGradient id="paint0_linear_90_745" x1="-1.79141" y1="10.4995" x2="59.8627" y2="73.6589" gradientUnits="userSpaceOnUse">
<stop stop-color="#D89223"/>
<stop offset="1" stop-color="#EFBE72"/>
</linearGradient>
</defs>
</svg>
